<?xml version="1.0" encoding="UTF-8" standalone="no"?>
<svg width="73px" height="72px" viewBox="0 0 73 72" version="1.1" xmlns="http://www.w3.org/2000/svg" xmlns:xlink="http://www.w3.org/1999/xlink" xmlns:sketch="http://www.bohemiancoding.com/sketch/ns">
    <!-- Generator: Sketch 3.2.2 (9983) - http://www.bohemiancoding.com/sketch -->
    <title>fb</title>
    <desc>Created with Sketch.</desc>
    <defs></defs>
    <g id="MH-MOBILE" stroke="none" stroke-width="1" fill="none" fill-rule="evenodd" sketch:type="MSPage">
        <g id="MH1-Item-2" sketch:type="MSArtboardGroup" transform="translate(-66.000000, -3259.000000)">
            <g id="fb" sketch:type="MSLayerGroup" transform="translate(65.169653, 3259.000000)">
                <path d="M72.92,36 C72.92,55.882 56.802,72 36.92,72 C17.038,72 0.92,55.882 0.92,36 C0.92,16.118 17.038,0 36.92,0 C56.802,0 72.92,16.118 72.92,36" id="Fill-1" fill="#47629B" sketch:type="MSShapeGroup"></path>
                <path d="M47,20 C47,19.999 42.295,20 41.172,20 C40.049,20 39,20.272 39,21.086 L39,26 L46.515,26 L45.663,34.171 L39.197,34.392 L39.236,58 L29,58 L29,34.56 L24,34.617 L24,26 L29.246,26 C29.246,25.999 29.285,23.549 29.285,19.096 C29.285,13.773 33.08,12 38.384,12 L47,12 L47,20" id="Fill-2" fill="#FFFFFF" sketch:type="MSShapeGroup"></path>
            </g>
        </g>
    </g>
</svg>