<?xml version="1.0" encoding="UTF-8" standalone="no"?>
<svg width="73px" height="72px" viewBox="0 0 73 72" version="1.1" xmlns="http://www.w3.org/2000/svg" xmlns:xlink="http://www.w3.org/1999/xlink" xmlns:sketch="http://www.bohemiancoding.com/sketch/ns">
    <!-- Generator: Sketch 3.2.2 (9983) - http://www.bohemiancoding.com/sketch -->
    <title>g+</title>
    <desc>Created with Sketch.</desc>
    <defs></defs>
    <g id="MH-MOBILE" stroke="none" stroke-width="1" fill="none" fill-rule="evenodd" sketch:type="MSPage">
        <g id="MH1-Item-2" sketch:type="MSArtboardGroup" transform="translate(-401.000000, -3259.000000)">
            <g id="g+" sketch:type="MSLayerGroup" transform="translate(401.169653, 3259.000000)">
                <path d="M72.32,36 C72.32,55.882 56.202,72 36.32,72 C16.438,72 0.32,55.882 0.32,36 C0.32,16.118 16.438,0 36.32,0 C56.202,0 72.32,16.118 72.32,36" id="Fill-1" fill="#D13F2D" sketch:type="MSShapeGroup"></path>
                <path d="M38.831,36.683 C37.05,34.612 37.894,33.446 40.084,31.632 C42.274,29.818 44.207,29.614 44.536,24.931 C44.865,20.269 40.711,18 40.711,18 L44.371,18 L47.389,14.617 C47.389,14.617 39.556,14.414 34.148,14.414 C28.739,14.414 24.452,16.097 22.407,19.593 C20.363,23.089 20.692,26.734 23.067,30.229 C25.441,33.726 32.634,33.92 32.634,33.92 C32.633,33.919 31.905,35.47 32.037,37.118 C32.169,38.767 33.62,39.751 33.62,39.751 C33.62,39.751 31.075,39.712 29.729,39.85 C28.383,39.989 20.692,40.67 18.516,45.946 C16.339,51.223 19.439,53.794 22.935,55.773 C26.431,57.752 32.697,57.884 36.984,57.29 C41.272,56.696 47.274,54.256 47.471,47.66 C47.669,41.064 40.612,38.755 38.831,36.683 L38.831,36.683 Z M26.2,24.627 C25.42,19.422 28.3,17.067 29.597,16.725 C32.599,15.934 36.852,16.725 38.633,22.925 C40.414,29.125 37.776,31.434 35.137,31.896 C32.499,32.357 27.077,30.478 26.2,24.627 L26.2,24.627 Z M32.74,55.443 C27.387,55.443 23.1,52.336 22.968,48.316 C22.836,44.296 28.463,41.197 32.74,41.196 C37.347,41.195 42.69,43.042 42.953,47.99 C43.217,52.936 38.093,55.443 32.74,55.443 L32.74,55.443 Z" id="Fill-2" fill="#FFFFFF" sketch:type="MSShapeGroup"></path>
                <path d="M52.023,25.795 L54.991,25.795 L54.991,40.382 L52.023,40.382 L52.023,25.795 Z" id="Fill-3" fill="#FFFFFF" sketch:type="MSShapeGroup"></path>
                <path d="M46.213,31.604 L60.8,31.604 L60.8,34.572 L46.213,34.572 L46.213,31.604 Z" id="Fill-4" fill="#FFFFFF" sketch:type="MSShapeGroup"></path>
            </g>
        </g>
    </g>
</svg>