<?xml version="1.0" encoding="UTF-8" standalone="no"?>
<svg width="73px" height="72px" viewBox="0 0 73 72" version="1.1" xmlns="http://www.w3.org/2000/svg" xmlns:xlink="http://www.w3.org/1999/xlink" xmlns:sketch="http://www.bohemiancoding.com/sketch/ns">
    <!-- Generator: Sketch 3.2.2 (9983) - http://www.bohemiancoding.com/sketch -->
    <title>mail</title>
    <desc>Created with Sketch.</desc>
    <defs></defs>
    <g id="MH-MOBILE" stroke="none" stroke-width="1" fill="none" fill-rule="evenodd" sketch:type="MSPage">
        <g id="MH1-Item-2" sketch:type="MSArtboardGroup" transform="translate(-511.000000, -3260.000000)">
            <g id="mail" sketch:type="MSLayerGroup" transform="translate(511.000000, 3260.000000)">
                <path d="M72.24,36 C72.24,55.882 56.122,72 36.24,72 C16.358,72 0.24,55.882 0.24,36 C0.24,16.118 16.358,0 36.24,0 C56.122,0 72.24,16.118 72.24,36" id="Fill-1" fill="#00CCCC" sketch:type="MSShapeGroup"></path>
                <g id="Group" transform="translate(14.000000, 20.000000)" fill="#FFFFFF" sketch:type="MSShapeGroup">
                    <path d="M43.5678659,0.000825806452 C41.2183537,2.13904516 39.0034756,4.15855484 36.7847561,6.17269677 C32.252561,10.2872774 27.7161585,14.395871 23.1885366,18.5166452 C22.7862805,18.8826839 22.497622,19.1589161 21.9541463,18.6624 C15.2555488,12.5427613 8.53518293,6.45347097 1.82067073,0.355716129 C1.73579268,0.278709677 1.6547561,0.196335484 1.4522561,0.000825806452 L43.5678659,0.000825806452" id="Fill-1"></path>
                    <path d="M1.55359756,31.9576774 C3.87695122,29.847329 6.05341463,27.8682839 8.23207317,25.892129 C11.2944512,23.1141161 14.3685366,20.3524129 17.4102439,17.5459097 C17.8688415,17.1228903 18.1423171,17.1555097 18.5604878,17.5554065 C19.6055488,18.5554581 20.6967073,19.4941935 21.7465244,20.4878452 C22.2868902,20.9994323 22.7436585,20.9792 23.2803659,20.4684387 C24.3742683,19.4270968 25.5073171,18.4379871 26.6142073,17.4137806 C26.9262805,17.1251613 27.154939,16.994271 27.5465854,17.3520516 C32.8022561,22.152671 38.0743902,26.9303742 43.3410366,31.7157161 C43.3838415,31.754529 43.4079878,31.8193548 43.4945122,31.9576774 L1.55359756,31.9576774" id="Fill-2"></path>
                    <path d="M16.8621951,16.034271 C11.2414024,21.1363097 5.70146341,26.1650581 0.051402439,31.293729 L0.051402439,0.785754839 C5.66945122,5.8816 11.2212805,10.9175742 16.8621951,16.034271" id="Fill-3"></path>
                    <path d="M44.9678049,0.760980645 L44.9678049,31.1543742 C43.0104878,29.3824 41.1444512,27.6963097 39.2813415,26.0058839 C35.817622,22.8634839 32.3645122,19.7062194 28.8843293,16.5873548 C28.3340854,16.0941419 28.2993293,15.8684903 28.8795732,15.3461677 C34.209878,10.5490581 39.5136585,5.71437419 44.9678049,0.760980645" id="Fill-4"></path>
                </g>
            </g>
        </g>
    </g>
</svg>