<?xml version="1.0" encoding="UTF-8" standalone="no"?>
<svg width="73px" height="72px" viewBox="0 0 73 72" version="1.1" xmlns="http://www.w3.org/2000/svg" xmlns:xlink="http://www.w3.org/1999/xlink" xmlns:sketch="http://www.bohemiancoding.com/sketch/ns">
    <!-- Generator: Sketch 3.2.2 (9983) - http://www.bohemiancoding.com/sketch -->
    <title>pin</title>
    <desc>Created with Sketch.</desc>
    <defs></defs>
    <g id="MH-MOBILE" stroke="none" stroke-width="1" fill="none" fill-rule="evenodd" sketch:type="MSPage">
        <g id="MH1-Item-2" sketch:type="MSArtboardGroup" transform="translate(-290.000000, -3259.000000)">
            <g id="pin" sketch:type="MSLayerGroup" transform="translate(290.169653, 3259.000000)">
                <path d="M72.52,36 C72.52,55.882 56.402,72 36.52,72 C16.638,72 0.52,55.882 0.52,36 C0.52,16.118 16.638,0 36.52,0 C56.402,0 72.52,16.118 72.52,36" id="Fill-1" fill="#CC2127" sketch:type="MSShapeGroup"></path>
                <path d="M33.809,24.369 C36.978,24.27 37.501,26.677 37.501,29.05 C37.501,31.423 35.933,35.614 35.062,39.4 C34.469,41.977 36.182,45.042 39.874,44.661 C43.566,44.279 47.059,41.196 48.049,34.727 C49.037,28.259 49.235,25.951 46.4,22.392 C43.566,18.832 37.797,16.623 31.304,19.228 C24.364,22.011 22.668,27.072 22.536,30.566 C22.404,34.06 22.998,35.763 23.459,36.592 C23.92,37.422 24.58,38.082 24.645,38.609 C24.712,39.136 24.316,42.169 23.657,42.498 C22.998,42.828 21.284,42.235 20.229,41.18 C19.174,40.125 16.076,35.846 16.669,29.613 C17.262,23.381 21.943,18.568 24.778,16.657 C27.612,14.745 33.615,12.721 39.083,13.229 C45.477,13.822 50.883,16.657 53.652,21.667 C56.421,26.677 57.08,32.94 53.652,40.455 C50.224,47.97 45.879,49.229 42.346,49.816 C39.133,50.35 36.011,49.289 34.996,48.497 C33.773,47.545 33.084,46.322 33.084,46.322 C33.084,46.322 31.172,55.485 29.722,57.859 C28.271,60.232 26.045,64.093 25.305,63.954 C24.25,63.757 24.25,58.188 24.712,54.167 C25.173,50.145 28.931,36.592 28.931,36.592 C28.93,36.592 26.953,32.742 28.337,29.05 C29.722,25.358 31.699,24.435 33.809,24.369" id="Fill-2" fill="#FFFFFF" sketch:type="MSShapeGroup"></path>
            </g>
        </g>
    </g>
</svg>