<?xml version="1.0" encoding="UTF-8" standalone="no"?>
<svg width="73px" height="72px" viewBox="0 0 73 72" version="1.1" xmlns="http://www.w3.org/2000/svg" xmlns:xlink="http://www.w3.org/1999/xlink" xmlns:sketch="http://www.bohemiancoding.com/sketch/ns">
    <!-- Generator: Sketch 3.2.2 (9983) - http://www.bohemiancoding.com/sketch -->
    <title>tw</title>
    <desc>Created with Sketch.</desc>
    <defs></defs>
    <g id="MH-MOBILE" stroke="none" stroke-width="1" fill="none" fill-rule="evenodd" sketch:type="MSPage">
        <g id="MH1-Item-2" sketch:type="MSArtboardGroup" transform="translate(-179.000000, -3260.000000)">
            <g id="tw" sketch:type="MSLayerGroup" transform="translate(179.169653, 3260.000000)">
                <path d="M72.72,36 C72.72,55.882 56.602,72 36.72,72 C16.838,72 0.72,55.882 0.72,36 C0.72,16.118 16.838,0 36.72,0 C56.602,0 72.72,16.118 72.72,36" id="Fill-1" fill="#32C9FC" sketch:type="MSShapeGroup"></path>
                <path d="M58.68,17.779 C58.68,17.779 56.38,18.791 55.267,19.162 C54.154,19.533 52.448,19.609 52.448,19.609 C52.448,19.609 47.979,15.092 41.765,17.779 C34.618,20.869 36.349,28.368 36.349,28.368 C36.349,28.368 32.491,29.079 26.927,26.73 C20.473,24.005 16.392,18.791 16.392,18.791 C16.392,18.791 13.944,22.352 15.725,26.581 C17.505,30.81 19.434,31.678 19.434,31.678 C19.434,31.678 18.148,31.7 17.06,31.305 C15.972,30.909 15.076,30.464 15.076,30.464 C15.076,30.463 14.648,33.689 17.653,36.745 C20.572,39.713 22.649,39.811 22.649,39.811 C22.649,39.811 21.808,40.257 20.522,40.207 C19.236,40.158 18.593,40.211 18.593,40.211 C18.593,40.211 19.07,42.774 22.55,44.945 C24.627,46.242 27.298,46.538 27.298,46.538 C27.298,46.538 25.814,48.615 21.808,49.703 C17.802,50.791 13.647,50.742 13.647,50.742 C13.647,50.742 21.066,55.935 31.205,54.749 C41.344,53.561 47.583,47.501 51.236,41.493 C55.688,34.173 54.946,26.21 54.946,26.21 C54.946,26.21 56.974,24.875 57.716,24.182 C58.458,23.49 59.793,21.511 59.793,21.511 C59.793,21.511 58.237,22.239 57.32,22.6 C55.688,23.243 55.242,22.946 55.242,22.946 C55.242,22.946 57.716,20.179 58.68,17.779" id="Fill-2" fill="#FFFFFF" sketch:type="MSShapeGroup"></path>
            </g>
        </g>
    </g>
</svg>