<?xml version="1.0" encoding="UTF-8" standalone="no"?>
<svg width="50px" height="46px" viewBox="0 0 50 46" version="1.1" xmlns="http://www.w3.org/2000/svg" xmlns:xlink="http://www.w3.org/1999/xlink" xmlns:sketch="http://www.bohemiancoding.com/sketch/ns">
    <!-- Generator: Sketch 3.2.2 (9983) - http://www.bohemiancoding.com/sketch -->
    <title>OUR_ADDRESS</title>
    <desc>Created with Sketch.</desc>
    <defs></defs>
    <g id="MH-MOBILE" stroke="none" stroke-width="1" fill="none" fill-rule="evenodd" sketch:type="MSPage">
        <g id="MH1-About-us" sketch:type="MSArtboardGroup" transform="translate(-20.000000, -4079.000000)" fill="#7AA8C1">
            <g id="Group" sketch:type="MSLayerGroup" transform="translate(20.000000, 1213.000000)">
                <g id="OUR_ADDRESS" transform="translate(0.000000, 2866.000000)" sketch:type="MSShapeGroup">
                    <path d="M25.0217822,10.0685 C25.0217822,10.0685 11.7584158,23.1855 6.57722772,29.392 C5.31881188,30.898 4.53663366,31.78 4.53663366,33.424 L4.53663366,42.7495 C4.53663366,44.827 5.27326733,45.571 7.33019802,45.571 L42.7138614,45.571 C44.7707921,45.571 45.5074257,44.827 45.5074257,42.7495 L45.5074257,33.112 C45.5074257,31.31 44.559901,30.671 43.0722772,28.924 C37.6415842,22.55 25.0217822,10.0685 25.0217822,10.0685 L25.0217822,10.0685 Z M30.6089109,41.809 L19.4351485,41.809 L19.4351485,26.762 L30.6089109,26.762 L30.6089109,41.809 L30.6089109,41.809 Z M48.9391089,27.4835 C48.2024752,28.2055 47.0242574,28.189 46.3054455,27.443 L25.0529703,5.3055 L3.18019802,27.4615 C2.81633663,27.8305 2.34009901,28.0145 1.86188119,28.0145 C1.38514851,28.0145 0.910891089,27.831 0.547029703,27.4655 C-0.180693069,26.7325 -0.182178218,25.5405 0.543069307,24.806 L23.7524752,1.294 C24.1014851,0.9395 24.5762376,0.741 25.0707921,0.741 L25.0836634,0.741 C25.5836634,0.745 26.060396,0.9505 26.4079208,1.312 L36.1955446,11.5085 L36.1955446,0.429 L41.7826733,0.429 L41.7826733,17.328 L48.9792079,24.824 C49.6955446,25.5695 49.6777228,26.76 48.9391089,27.4835 L48.9391089,27.4835 Z" id="Shape"></path>
                </g>
            </g>
        </g>
    </g>
</svg>