<?xml version="1.0" encoding="UTF-8" standalone="no"?>
<svg width="38px" height="50px" viewBox="0 0 38 50" version="1.1" xmlns="http://www.w3.org/2000/svg" xmlns:xlink="http://www.w3.org/1999/xlink" xmlns:sketch="http://www.bohemiancoding.com/sketch/ns">
    <!-- Generator: Sketch 3.2.2 (9983) - http://www.bohemiancoding.com/sketch -->
    <title>BANK_INFO</title>
    <desc>Created with Sketch.</desc>
    <defs></defs>
    <g id="MH-MOBILE" stroke="none" stroke-width="1" fill="none" fill-rule="evenodd" sketch:type="MSPage">
        <g id="MH1-About-us" sketch:type="MSArtboardGroup" transform="translate(-22.000000, -5103.000000)" fill="#7AA9C2">
            <g id="Group" sketch:type="MSLayerGroup" transform="translate(20.000000, 1213.000000)">
                <g id="BANK_INFO" transform="translate(2.000000, 3890.000000)" sketch:type="MSShapeGroup">
                    <path d="M30.6452267,22.7272277 L7.5012,22.7272277 L7.5012,19.1569307 L30.64472,19.1569307 L30.64472,22.7272277 L30.6452267,22.7272277 Z M30.6452267,26.7737624 L7.5012,26.7737624 L7.5012,30.3440594 L30.64472,30.3440594 L30.64472,26.7737624 L30.6452267,26.7737624 Z M30.6452267,34.3905941 L7.5012,34.3905941 L7.5012,37.9608911 L30.64472,37.9608911 L30.64472,34.3905941 L30.6452267,34.3905941 Z M30.6452267,40.460396 L28.8181867,40.460396 L28.8181867,42.2455446 L30.6452267,42.2455446 L30.6452267,40.460396 L30.6452267,40.460396 Z M11.2773867,11.3613861 L11.2773867,13.3252475 L9.51114667,13.3252475 L9.51114667,11.3613861 L7.5012,11.3613861 L7.5012,15.2891089 L8.68882667,15.2891089 L9.51114667,15.2891089 L11.2773867,15.2891089 L12.3434133,15.2891089 L13.2873333,15.2891089 L13.2873333,11.3613861 L11.2773867,11.3613861 L11.2773867,11.3613861 Z M11.2773867,9.39752475 L9.51114667,9.39752475 L9.51114667,11.3613861 L11.2773867,11.3613861 L11.2773867,9.39752475 L11.2773867,9.39752475 Z M37.9533867,12.4321782 L37.9533867,45.6970297 C37.9533867,47.800495 36.20792,49.5054455 34.0556,49.5054455 L4.09082667,49.5054455 C1.938,49.5054455 0.19304,47.8 0.19304,45.6970297 L0.19304,3.80940594 C0.19304,1.70594059 1.93850667,0.00099009901 4.09082667,0.00099009901 L25.5289067,0.00099009901 L37.9533867,12.4321782 L37.9533867,12.4321782 Z M34.5430133,15.2886139 L22.6059467,15.2886139 L22.6059467,3.56584158 L5.91786667,3.56584158 C4.84069333,3.56584158 3.96872,4.41782178 3.96872,5.47029703 L3.96872,44.150495 C3.96872,45.2029703 4.84069333,46.0549505 5.91786667,46.0549505 L32.5938667,46.0549505 C33.67104,46.0549505 34.5430133,45.2029703 34.5430133,44.150495 L34.5430133,15.2886139 L34.5430133,15.2886139 Z" id="Shape"></path>
                </g>
            </g>
        </g>
    </g>
</svg>