<?xml version="1.0" encoding="UTF-8" standalone="no"?>
<svg width="50px" height="51px" viewBox="0 0 50 51" version="1.1" xmlns="http://www.w3.org/2000/svg" xmlns:xlink="http://www.w3.org/1999/xlink" xmlns:sketch="http://www.bohemiancoding.com/sketch/ns">
    <!-- Generator: Sketch 3.2.2 (9983) - http://www.bohemiancoding.com/sketch -->
    <title>PACKING</title>
    <desc>Created with Sketch.</desc>
    <defs></defs>
    <g id="MH-MOBILE" stroke="none" stroke-width="1" fill="none" fill-rule="evenodd" sketch:type="MSPage">
        <g id="MH1-About-us" sketch:type="MSArtboardGroup" transform="translate(-21.000000, -1775.000000)" fill="#7AA9C2">
            <g id="Group" sketch:type="MSLayerGroup" transform="translate(20.000000, 1213.000000)">
                <g id="PACKING" transform="translate(1.000000, 562.000000)" sketch:type="MSShapeGroup">
                    <g id="Group">
                        <path d="M24.06,0 L0.181,9.75766337 L0.181,36.2251485 C0.181,36.2251485 3.3285,37.9576337 7.384,40.1900198 L5.223,35.4626733 L2.453,33.9074257 L2.453,12.0748812 L26.1245,22.5642178 L26.1245,47.2017624 L14.7585,40.8176733 L13.183,42.2805149 C12.911,42.5350099 12.6,42.7294158 12.2695,42.8778713 C18.148,46.114099 24.1395,49.4109208 25,49.8855743 C26.755,50.8515446 29.378,50.6556238 31.22,49.3977921 C33.0615,48.1399604 49.819,36.7129307 49.819,36.7129307 L49.819,9.75766337 L24.06,0 L24.06,0 Z M26.1245,19.6370198 L5.3515,10.1232475 L14.334,6.40125743 L35.209,15.7206238 L26.1245,19.6370198 L26.1245,19.6370198 Z M41.074,23.2196436 L37.541,25.5924059 C36.8295,26.0685743 36.1955,25.5959406 36.124,24.5345347 L36.1055,24.2941782 C36.034,23.2327723 36.5505,21.9900891 37.2605,21.5098812 L40.7935,19.1391386 C41.503,18.6609505 42.139,19.135604 42.2125,20.1949901 L42.2295,20.4353465 C42.3025,21.4967525 41.7855,22.7434752 41.074,23.2196436 L41.074,23.2196436 Z M37.6415,14.6718416 L16.814,5.37418812 L24.1925,2.31721782 L46.777,10.7332277 L37.6415,14.6718416 L37.6415,14.6718416 Z" id="Shape"></path>
                        <path d="M9.607,40.3935149 C9.7955,40.8111089 10.175,41.1130693 10.6225,41.2034554 C10.715,41.2216337 10.8075,41.2307228 10.9015,41.2307228 C11.258,41.2307228 11.6035,41.0974158 11.8675,40.8494851 L17.557,35.567703 L24.2995,29.3063168 C24.881,28.7670297 24.9165,27.8540792 24.3825,27.2673267 C23.8505,26.6785545 22.9445,26.6432079 22.365,27.1804752 L11.379,37.3875446 L6.484,26.6770396 C6.1535,25.9539505 5.299,25.6383564 4.5875,25.9721287 C3.8705,26.3064059 3.559,27.162297 3.8875,27.8884158 L8.088,37.0724554 L9.607,40.3935149 L9.607,40.3935149 Z" id="Shape"></path>
                    </g>
                </g>
            </g>
        </g>
    </g>
</svg>