<?xml version="1.0" encoding="UTF-8" standalone="no"?>
<svg width="54px" height="54px" viewBox="0 0 54 54" version="1.1" xmlns="http://www.w3.org/2000/svg" xmlns:xlink="http://www.w3.org/1999/xlink" xmlns:sketch="http://www.bohemiancoding.com/sketch/ns">
    <!-- Generator: Sketch 3.2.2 (9983) - http://www.bohemiancoding.com/sketch -->
    <title>COOKIE_POLICY</title>
    <desc>Created with Sketch.</desc>
    <defs></defs>
    <g id="MH-MOBILE" stroke="none" stroke-width="1" fill="none" fill-rule="evenodd" sketch:type="MSPage">
        <g id="MH1-About-us" sketch:type="MSArtboardGroup" transform="translate(-20.000000, -3571.000000)" fill="#7AA8C1">
            <g id="Group" sketch:type="MSLayerGroup" transform="translate(20.000000, 1213.000000)">
                <g id="COOKIE_POLICY" transform="translate(27.000000, 2385.000000) scale(1, -1) translate(-27.000000, -2385.000000) translate(0.000000, 2358.000000)" sketch:type="MSShapeGroup">
                    <path d="M53.7326733,27 C53.7326733,24.733604 52.0811287,22.8655248 49.9173861,22.5019604 C51.7833267,21.345505 52.6056238,18.992495 51.7485743,16.8939802 C50.8396634,14.6698218 48.384,13.5700396 46.1347129,14.2832673 C47.6643564,12.4868317 47.600198,9.7969901 45.9026733,8.09732673 C44.2992475,6.49390099 41.8125743,6.34152475 40.0257624,7.61186139 C40.5267327,5.4769901 39.4435248,3.2319802 37.3551683,2.35407921 C35.1411683,1.42217822 32.6250891,2.38134653 31.5381386,4.47718812 C31.3488713,2.12364356 29.4016634,0.267326733 27,0.267326733 C24.733604,0.267326733 22.8655248,1.91887129 22.5019604,4.08261386 C21.3476436,2.21667327 18.992495,1.39437624 16.8939802,2.25142574 C14.6698218,3.16033663 13.5700396,5.616 14.2832673,7.86528713 C12.4868317,6.33564356 9.79485149,6.39766337 8.09732673,8.09732673 C6.49390099,9.70075248 6.34152475,12.1874257 7.61186139,13.9763762 C5.4769901,13.4754059 3.23358416,14.5586139 2.35407921,16.6469703 C1.42378218,18.8609703 2.38134653,21.3770495 4.47772277,22.4618614 C2.12364356,22.6511287 0.267326733,24.5983366 0.267326733,27 C0.267326733,29.266396 1.91887129,31.1344752 4.08261386,31.4980396 C2.21667327,32.654495 1.39437624,35.007505 2.25142574,37.1060198 C3.16033663,39.3301782 5.616,40.4299604 7.86528713,39.7167327 C6.33564356,41.5131683 6.39980198,44.2030099 8.09732673,45.9026733 C9.70075248,47.506099 12.1874257,47.6584752 13.9763762,46.3881386 C13.4732673,48.5230099 14.5586139,50.7664158 16.6469703,51.6459208 C18.8609703,52.5762178 21.3770495,51.6186535 22.4618614,49.5228119 C22.6511287,51.8763564 24.5988713,53.7326733 27.0005347,53.7326733 C29.2669307,53.7326733 31.1350099,52.0811287 31.4985743,49.9173861 C32.6528911,51.7833267 35.0080396,52.6056238 37.1065545,51.7485743 C39.3307129,50.8396634 40.430495,48.3877426 39.7172673,46.1368515 C41.5158416,47.6643564 44.2056832,47.6007327 45.9032079,45.9048119 C47.5066337,44.2997822 47.6590099,41.8131089 46.3886733,40.0257624 C48.5235446,40.5267327 50.7685545,39.4419208 51.6464554,37.3551683 C52.5783564,35.1411683 51.6191881,32.6250891 49.5233465,31.5381386 C51.8763564,31.3488713 53.7326733,29.4016634 53.7326733,27 L53.7326733,27 Z M15.4397228,14.7168713 C16.6368119,14.7168713 17.6072079,15.687802 17.6072079,16.8843564 C17.6072079,18.0809109 16.6362772,19.0518416 15.4397228,19.0518416 C14.2431683,19.0518416 13.2722376,18.0809109 13.2722376,16.8843564 C13.2722376,15.687802 14.2426337,14.7168713 15.4397228,14.7168713 L15.4397228,14.7168713 Z M27,14.7168713 C28.1970891,14.7168713 29.1674851,15.687802 29.1674851,16.8843564 C29.1674851,18.0809109 28.1965545,19.0518416 27,19.0518416 C25.8029109,19.0518416 24.8325149,18.0809109 24.8325149,16.8843564 C24.8325149,15.687802 25.8029109,14.7168713 27,14.7168713 L27,14.7168713 Z M40.7277624,16.8843564 C40.7277624,18.0814455 39.7568317,19.0518416 38.5602772,19.0518416 C37.3631881,19.0518416 36.3927921,18.0809109 36.3927921,16.8843564 C36.3927921,15.687802 37.3637228,14.7168713 38.5602772,14.7168713 C39.7573663,14.7168713 40.7277624,15.6872673 40.7277624,16.8843564 L40.7277624,16.8843564 Z M13.2722376,27.4817228 C13.2722376,26.2846337 14.2431683,25.313703 15.4397228,25.313703 C16.6362772,25.313703 17.6072079,26.2846337 17.6072079,27.4817228 C17.6072079,28.6788119 16.6362772,29.6492079 15.4397228,29.6492079 C14.2431683,29.6492079 13.2722376,28.6788119 13.2722376,27.4817228 L13.2722376,27.4817228 Z M24.8325149,27.4817228 C24.8325149,26.2846337 25.8034455,25.313703 27,25.313703 C28.1970891,25.313703 29.1674851,26.2846337 29.1674851,27.4817228 C29.1674851,28.6788119 28.1965545,29.6492079 27,29.6492079 C25.8029109,29.6492079 24.8325149,28.6788119 24.8325149,27.4817228 L24.8325149,27.4817228 Z M40.7277624,27.4817228 C40.7277624,28.6788119 39.7568317,29.6492079 38.5602772,29.6492079 C37.3631881,29.6492079 36.3927921,28.6782772 36.3927921,27.4817228 C36.3927921,26.2846337 37.3637228,25.313703 38.5602772,25.313703 C39.7573663,25.313703 40.7277624,26.2846337 40.7277624,27.4817228 L40.7277624,27.4817228 Z M13.2722376,38.0785545 C13.2722376,36.8814653 14.2431683,35.9110693 15.4397228,35.9110693 C16.6362772,35.9110693 17.6072079,36.882 17.6072079,38.0785545 C17.6072079,39.2756436 16.6362772,40.2465743 15.4397228,40.2465743 C14.2431683,40.2465743 13.2722376,39.2756436 13.2722376,38.0785545 L13.2722376,38.0785545 Z M24.8325149,38.0785545 C24.8325149,36.8814653 25.8034455,35.9110693 27,35.9110693 C28.1970891,35.9110693 29.1674851,36.882 29.1674851,38.0785545 C29.1674851,39.2756436 28.1965545,40.2465743 27,40.2465743 C25.8029109,40.2465743 24.8325149,39.2756436 24.8325149,38.0785545 L24.8325149,38.0785545 Z M38.5602772,40.2465743 C37.3631881,40.2465743 36.3927921,39.2756436 36.3927921,38.0785545 C36.3927921,36.8814653 37.3637228,35.9110693 38.5602772,35.9110693 C39.7573663,35.9110693 40.7277624,36.882 40.7277624,38.0785545 C40.7277624,39.2756436 39.7573663,40.2465743 38.5602772,40.2465743 L38.5602772,40.2465743 Z" id="Shape"></path>
                </g>
            </g>
        </g>
    </g>
</svg>