<?xml version="1.0" encoding="UTF-8" standalone="no"?>
<svg width="50px" height="42px" viewBox="0 0 50 42" version="1.1" xmlns="http://www.w3.org/2000/svg" xmlns:xlink="http://www.w3.org/1999/xlink" xmlns:sketch="http://www.bohemiancoding.com/sketch/ns">
    <!-- Generator: Sketch 3.2.2 (9983) - http://www.bohemiancoding.com/sketch -->
    <title>DELIVERY_POLICY</title>
    <desc>Created with Sketch.</desc>
    <defs></defs>
    <g id="MH-MOBILE" stroke="none" stroke-width="1" fill="none" fill-rule="evenodd" sketch:type="MSPage">
        <g id="MH1-About-us" sketch:type="MSArtboardGroup" transform="translate(-21.000000, -1213.000000)" fill="#7AA9C2">
            <g id="Group" sketch:type="MSLayerGroup" transform="translate(20.000000, 1213.000000)">
                <g id="DELIVERY_POLICY" transform="translate(1.000000, 0.000000)" sketch:type="MSShapeGroup">
                    <g id="Group">
                        <path d="M16.3564356,33.771 C14.2009901,33.771 12.4480198,35.5415 12.4480198,37.7185 C12.4480198,39.8955 14.2009901,41.666 16.3564356,41.666 C18.5118812,41.666 20.2648515,39.8955 20.2648515,37.7185 C20.2648515,35.5415 18.5118812,33.771 16.3564356,33.771 L16.3564356,33.771 Z" id="Shape"></path>
                        <path d="M43.2549505,15.195 L31.070297,15.195 L31.070297,37.4865 L33.8524752,37.4865 C33.9762376,34.395 36.4876238,31.9135 39.5767327,31.9135 C42.6663366,31.9135 45.1772277,34.395 45.3009901,37.4865 L49.7683168,37.4865 L49.7683168,24.715 L43.2549505,15.195 L43.2549505,15.195 Z M46.2435644,26.573 L36.8178218,26.573 L36.8178218,19.1395 L41.6460396,19.1395 L46.2440594,24.715 L46.2440594,26.573 L46.2435644,26.573 Z" id="Shape"></path>
                        <path d="M39.5767327,33.771 C37.4212871,33.771 35.6683168,35.5415 35.6683168,37.7185 C35.6683168,39.8955 37.4212871,41.666 39.5767327,41.666 C41.7321782,41.666 43.4851485,39.8955 43.4851485,37.7185 C43.4851485,35.5415 41.7321782,33.771 39.5767327,33.771 L39.5767327,33.771 Z" id="Shape"></path>
                        <path d="M12.6777228,0.334 C5.83267327,0.334 0.262871287,5.9585 0.262871287,12.873 C0.262871287,16.797 2.05891089,20.3015 4.86089109,22.602 L4.86089109,37.4865 L10.6316832,37.4865 C10.7554455,34.395 13.2668317,31.9135 16.3559406,31.9135 C19.4455446,31.9135 21.9564356,34.395 22.080198,37.4865 L28.7707921,37.4865 L28.7707921,11.944 L25.0460396,11.944 C24.5717822,5.463 19.2123762,0.334 12.6777228,0.334 L12.6777228,0.334 Z M12.6777228,23.554 C6.84554455,23.554 2.1019802,18.762 2.1019802,12.8725 C2.1019802,6.983 6.84554455,2.191 12.6777228,2.191 C18.509901,2.191 23.2534653,6.983 23.2534653,12.8725 C23.2534653,18.762 18.509901,23.554 12.6777228,23.554 L12.6777228,23.554 Z" id="Shape"></path>
                        <path d="M13.5975248,5.21 L11.7584158,5.21 L11.7584158,13.273 L16.1841584,17.495 L17.4485149,16.1455 L13.5975248,12.473 L13.5975248,5.21 Z" id="Shape"></path>
                    </g>
                </g>
            </g>
        </g>
    </g>
</svg>