<?xml version="1.0" encoding="UTF-8" standalone="no"?>
<svg width="50px" height="50px" viewBox="0 0 50 50" version="1.1" xmlns="http://www.w3.org/2000/svg" xmlns:xlink="http://www.w3.org/1999/xlink" xmlns:sketch="http://www.bohemiancoding.com/sketch/ns">
    <!-- Generator: Sketch 3.2.2 (9983) - http://www.bohemiancoding.com/sketch -->
    <title>DISCOUNT_POLICY</title>
    <desc>Created with Sketch.</desc>
    <defs></defs>
    <g id="MH-MOBILE" stroke="none" stroke-width="1" fill="none" fill-rule="evenodd" sketch:type="MSPage">
        <g id="MH1-About-us" sketch:type="MSArtboardGroup" transform="translate(-20.000000, -2803.000000)" fill="#7AA8C1">
            <g id="Group" sketch:type="MSLayerGroup" transform="translate(20.000000, 1213.000000)">
                <g id="DISCOUNT_POLICY" transform="translate(0.000000, 1590.000000)" sketch:type="MSShapeGroup">
                    <path d="M49.7118812,24.9212871 C49.7118812,38.5925743 38.630198,49.6737624 24.9594059,49.6737624 C11.2881188,49.6737624 0.206930693,38.5925743 0.206930693,24.9212871 C0.206930693,11.250495 11.2881188,0.168811881 24.9594059,0.168811881 C38.630198,0.168811881 49.7118812,11.250495 49.7118812,24.9212871 L49.7118812,24.9212871 Z M21.9113861,15.8618812 C21.9113861,12.4 19.0945545,9.58316832 15.6306931,9.58316832 C12.1707921,9.58316832 9.35445545,12.4 9.35445545,15.8618812 C9.35445545,19.3217822 12.1712871,22.1386139 15.6306931,22.1386139 C19.0950495,22.1381188 21.9113861,19.3217822 21.9113861,15.8618812 L21.9113861,15.8618812 Z M18.6831683,15.8618812 C18.6831683,17.5435644 17.3148515,18.909901 15.6311881,18.909901 C13.949505,18.909901 12.5831683,17.5435644 12.5831683,15.8618812 C12.5831683,14.180198 13.949505,12.8118812 15.6311881,12.8118812 C17.3143564,12.8118812 18.6831683,14.180198 18.6831683,15.8618812 L18.6831683,15.8618812 Z M40.5643564,34.5143564 C40.5643564,31.0544554 37.7475248,28.2376238 34.2881188,28.2376238 C30.8242574,28.2376238 28.0074257,31.0544554 28.0074257,34.5143564 C28.0074257,37.9762376 30.8242574,40.7925743 34.2881188,40.7925743 C37.7475248,40.7930693 40.5643564,37.9767327 40.5643564,34.5143564 L40.5643564,34.5143564 Z M37.3356436,34.5143564 C37.3356436,36.1960396 35.9693069,37.5638614 34.2876238,37.5638614 C32.6039604,37.5638614 31.2356436,36.1955446 31.2356436,34.5143564 C31.2356436,32.8326733 32.6039604,31.4663366 34.2876238,31.4663366 C35.9693069,31.4668317 37.3356436,32.8331683 37.3356436,34.5143564 L37.3356436,34.5143564 Z M35.4292079,17.0029703 L33.1465347,14.720297 L14.489604,33.3732673 L16.7722772,35.6559406 L35.4292079,17.0029703 L35.4292079,17.0029703 Z" id="Shape"></path>
                </g>
            </g>
        </g>
    </g>
</svg>