<?xml version="1.0" encoding="UTF-8" standalone="no"?>
<svg width="50px" height="48px" viewBox="0 0 50 48" version="1.1" xmlns="http://www.w3.org/2000/svg" xmlns:xlink="http://www.w3.org/1999/xlink" xmlns:sketch="http://www.bohemiancoding.com/sketch/ns">
    <!-- Generator: Sketch 3.2.2 (9983) - http://www.bohemiancoding.com/sketch -->
    <title>PAYMENT_POLICY</title>
    <desc>Created with Sketch.</desc>
    <defs></defs>
    <g id="MH-MOBILE" stroke="none" stroke-width="1" fill="none" fill-rule="evenodd" sketch:type="MSPage">
        <g id="MH1-About-us" sketch:type="MSArtboardGroup" transform="translate(-21.000000, -2279.000000)" fill="#7AA9C2">
            <g id="Group" sketch:type="MSLayerGroup" transform="translate(20.000000, 1213.000000)">
                <g id="PAYMENT_POLICY" transform="translate(1.000000, 1066.000000)" sketch:type="MSShapeGroup">
                    <path d="M33.6085,16.6295 C32.904,15.39 33.547,13.696 35.0465,12.845 C36.542,11.994 38.3305,12.306 39.035,13.546 C39.7395,14.7855 39.0945,16.4795 37.599,17.3305 C36.0995,18.185 34.313,17.8695 33.6085,16.6295 L33.6085,16.6295 Z M21.7485,15.875 C19.702,17.038 18.3145,18.826 17.7275,20.7145 L32.504,20.7145 C32.556,19.648 32.3635,18.593 31.8245,17.646 C30.0455,14.512 25.5295,13.723 21.7485,15.875 L21.7485,15.875 Z M4.6625,20.7145 L8.166,20.7145 C8.1255,20.2025 8.0545,19.692 7.914,19.186 L31.6665,5.68 C33.701,7.8015 36.7155,8.66 39.559,7.9475 L44.194,16.102 C42.933,17.3725 42.1495,18.997 41.9015,20.714 L49.3455,20.714 L45.9405,14.7235 C45.933,14.7275 45.927,14.731 45.921,14.735 L41.615,7.162 C41.6205,7.158 41.6285,7.158 41.636,7.1545 L37.576,0.0135 L37.557,0.025 L30.4365,4.073 L7.161,17.3075 L0.0215,21.365 L0,21.3765 L4.6625,29.577 L4.6625,20.7145 L4.6625,20.7145 Z M28.4015,28.815 C24.0455,28.815 20.515,31.733 20.515,35.335 C20.515,38.9365 24.0455,41.855 28.4015,41.855 C32.752,41.855 36.2865,38.9365 36.2865,35.335 C36.286,31.733 32.752,28.815 28.4015,28.815 L28.4015,28.815 Z M15.342,32.7535 C13.617,32.7535 12.2195,33.9085 12.2195,35.335 C12.2195,36.7615 13.617,37.9165 15.342,37.9165 C17.063,37.9165 18.4625,36.7615 18.4625,35.335 C18.4625,33.9085 17.0635,32.7535 15.342,32.7535 L15.342,32.7535 Z M41.4605,32.7535 C39.7355,32.7535 38.338,33.9085 38.338,35.335 C38.338,36.7615 39.7355,37.9165 41.4605,37.9165 C43.1815,37.9165 44.581,36.7615 44.581,35.335 C44.581,33.9085 43.1815,32.7535 41.4605,32.7535 L41.4605,32.7535 Z M49.9765,31.0615 L49.9765,39.774 C49.984,39.774 49.992,39.772 50,39.772 L50,47.986 L49.9765,47.986 L41.786,47.986 L15.013,47.986 L6.799,47.986 L6.776,47.986 L6.776,22.8515 L6.799,22.8515 L15.013,22.8515 L41.786,22.8515 L49.9765,22.8515 L50,22.8515 L50,31.0635 C49.9925,31.0635 49.9845,31.0615 49.9765,31.0615 L49.9765,31.0615 Z M47.8015,30.7285 C44.9795,29.941 42.7815,27.7065 42.061,24.8575 L14.738,24.8575 C14.014,27.724 11.7965,29.968 8.9515,30.744 L8.9515,40.0955 C11.7965,40.8715 14.0145,43.116 14.738,45.9805 L42.0615,45.9805 C42.7815,43.1295 44.98,40.8945 47.802,40.1075 L47.802,30.7285 L47.8015,30.7285 Z" id="Shape"></path>
                </g>
            </g>
        </g>
    </g>
</svg>