<?xml version="1.0" encoding="UTF-8" standalone="no"?>
<svg width="45px" height="51px" viewBox="0 0 45 51" version="1.1" xmlns="http://www.w3.org/2000/svg" xmlns:xlink="http://www.w3.org/1999/xlink" xmlns:sketch="http://www.bohemiancoding.com/sketch/ns">
    <!-- Generator: Sketch 3.2.2 (9983) - http://www.bohemiancoding.com/sketch -->
    <title>RETURN_AND_REFUND_POLICY</title>
    <desc>Created with Sketch.</desc>
    <defs></defs>
    <g id="MH-MOBILE" stroke="none" stroke-width="1" fill="none" fill-rule="evenodd" sketch:type="MSPage">
        <g id="MH1-About-us" sketch:type="MSArtboardGroup" transform="translate(-23.000000, -3163.000000)" fill="#7AA9C2">
            <g id="Group" sketch:type="MSLayerGroup" transform="translate(20.000000, 1213.000000)">
                <g id="RETURN_AND_REFUND_POLICY" transform="translate(3.000000, 1950.704102)" sketch:type="MSShapeGroup">
                    <g id="Group">
                        <path d="M21.6485,0 L0.0165,8.7525 L0.0165,32.4945 C0.0165,32.4945 1.659,33.3905 4.0575,34.6965 C3.9225,33.6725 3.866,32.5785 3.914,31.438 L2.0745,30.4155 L2.0745,10.8315 L23.5185,20.2405 L23.5185,42.341 L17.655,39.0795 L17.525,42.037 C20.1045,43.442 22.055,44.5055 22.4995,44.748 C24.0895,45.6145 26.4655,45.4385 28.134,44.3105 C29.8025,43.1825 44.983,32.932 44.983,32.932 L44.983,8.7525 L21.6485,0 L21.6485,0 Z M23.519,17.615 L4.7005,9.081 L12.8395,5.7425 L31.7485,14.102 L23.519,17.615 L23.519,17.615 Z M37.0615,20.8285 L33.861,22.957 C33.2165,23.3845 32.642,22.9605 32.577,22.008 L32.56,21.7925 C32.495,20.8405 32.9635,19.726 33.606,19.295 L36.8065,17.1685 C37.449,16.7395 38.025,17.165 38.092,18.1155 L38.1075,18.331 C38.1745,19.2835 37.706,20.4015 37.0615,20.8285 L37.0615,20.8285 Z M33.9505,13.1615 L15.084,4.821 L21.768,2.079 L42.2275,9.628 L33.9505,13.1615 L33.9505,13.1615 Z" id="Shape"></path>
                        <path d="M18.3765,23.123 L12.578,19.1465 C0.324,28.5555 7.945,41.2115 7.945,41.2115 L4.1155,43.2165 L15.4225,50 L15.9695,37.563 C15.9695,37.563 14.125,38.233 12.484,38.8895 C9.4205,28.277 18.3765,23.123 18.3765,23.123 L18.3765,23.123 Z" id="Shape"></path>
                    </g>
                </g>
            </g>
        </g>
    </g>
</svg>