<?xml version="1.0" encoding="UTF-8" standalone="no"?>
<svg width="214px" height="189px" viewBox="0 0 214 189" version="1.1" xmlns="http://www.w3.org/2000/svg" xmlns:xlink="http://www.w3.org/1999/xlink" xmlns:sketch="http://www.bohemiancoding.com/sketch/ns">
    <!-- Generator: Sketch 3.2.2 (9983) - http://www.bohemiancoding.com/sketch -->
    <title>Heart</title>
    <desc>Created with Sketch.</desc>
    <defs></defs>
    <g id="MH-MOBILE" stroke="none" stroke-width="1" fill="none" fill-rule="evenodd" sketch:type="MSPage">
        <g id="MH1-Confirmation" sketch:type="MSArtboardGroup" transform="translate(-214.000000, -683.000000)" fill="#7DADC3">
            <g id="Heart" sketch:type="MSLayerGroup" transform="translate(210.000000, 678.000000)">
                <path d="M217.3875,55.5156522 C217.056,76.0330435 207.8165,93.1506522 196.316,109.276304 C177.344,135.872609 154.581,159.111522 131.1295,181.714565 C127.1175,185.580652 121.5925,187.242391 117.98,191.956304 C115.4555,195.254348 110.9675,193.889348 107.2445,192.312391 C88.145,184.215652 71.706,172.32913 57.426,157.432826 C34.6205,133.651304 16.3625,107.063478 7.497,74.9054348 C3.621,60.8569565 2.703,46.571087 7.599,32.598913 C16.439,7.38456522 45.169,-2.04326087 68.561,11.9967391 C85.17,21.9671739 95.863,36.8719565 104.822,53.396087 C109.922,62.8069565 109.7435,62.6543478 116.654,54.9730435 C129.4295,40.7804348 143.3695,27.9443478 160.7945,19.4745652 C197.6845,1.53456522 217.9485,28.7328261 217.3875,55.5156522 L217.3875,55.5156522 Z M28.6195,52.2006522 C28.203,57.5928261 29.07,62.79 30.498,67.8345652 C41.531,106.961739 65.3225,137.237609 97.835,160.561304 C111.8175,170.591087 108.324,170.226522 121.0145,158.212826 C121.601,157.653261 122.196,157.110652 122.7825,156.542609 C145.6135,134.414348 167.365,111.370435 184.3565,84.2993478 C190.111,75.1343478 194.633,65.4606522 194.089,54.2693478 C193.3495,38.9321739 183.736,33.5993478 170.2635,40.788913 C162.7155,44.8245652 156.026,50.0217391 149.7105,55.6852174 C138.992,65.2995652 128.588,75.3293478 122.366,88.5469565 C119.4335,94.77 115.549,99.5178261 108.732,99.8484783 C101.711,100.187609 99.263,94.1086957 96.6025,88.7928261 C90.2785,76.1686957 84.8555,63.0358696 76.7295,51.4036957 C69.156,40.5515217 59.789,31.9630435 46.121,29.2923913 C39.9415,28.1054348 35.428,30.0808696 32.283,35.4052174 C29.206,40.6193478 28.1435,46.2913043 28.6195,52.2006522 L28.6195,52.2006522 Z" id="Shape" sketch:type="MSShapeGroup"></path>
            </g>
        </g>
    </g>
</svg>