<?xml version="1.0" encoding="UTF-8" standalone="no"?>
<svg width="56px" height="69px" viewBox="0 0 56 69" version="1.1" xmlns="http://www.w3.org/2000/svg" xmlns:xlink="http://www.w3.org/1999/xlink" xmlns:sketch="http://www.bohemiancoding.com/sketch/ns">
    <!-- Generator: Sketch 3.2.2 (9983) - http://www.bohemiancoding.com/sketch -->
    <title>Imported Layers 9</title>
    <desc>Created with Sketch.</desc>
    <defs></defs>
    <g id="MH-MOBILE" stroke="none" stroke-width="1" fill="none" fill-rule="evenodd" sketch:type="MSPage">
        <g id="MH1-Item-2" sketch:type="MSArtboardGroup" transform="translate(-150.000000, -2183.000000)" fill="#00CCCC">
            <g id="Imported-Layers-9" sketch:type="MSLayerGroup" transform="translate(150.000000, 2183.000000)">
                <path d="M28,42.043 L28,28.788 L25,25.485 L22,28.788 L22,45.863 C22,45.863 22.558,48.184 24.899,48.184 C26.155,48.184 26.991,47.518 27.412,46.899 L38,35.395 L38,33 L35.643,33 L28,42.043" id="Fill-1" sketch:type="MSShapeGroup"></path>
                <path d="M55.783,43.5 C55.783,40.517 54.543,39 54.543,39 L51.288,39 C49.711,27 40,17.567 28,16.66 L28,16.015 C31,14.848 33.021,11.942 33.021,8.541 C33.021,4.115 29.37,0.514 24.943,0.514 C20.517,0.514 16.897,4.115 16.897,8.541 C16.897,11.942 19,14.848 22,16.015 L22,16.872 C10,18.74 0.212,29.384 0.212,42.236 C0.212,56.405 11.696,68.11 25.865,68.11 C38.207,68.11 48.508,59 50.961,48 L54.543,48 C54.543,48 55.783,46.482 55.783,43.5 L55.783,43.5 Z M19.771,8.541 C19.771,5.716 22.07,3.419 24.892,3.419 C27.716,3.419 30.014,5.716 30.014,8.541 C30.014,10.355 29.06,11.942 27.633,12.852 C27.351,12.082 26.601,10.901 24.642,10.901 C22.734,10.901 22.19,12.021 22.039,12.791 C20.672,11.87 19.771,10.309 19.771,8.541 L19.771,8.541 Z M25.862,62.081 C14.919,62.081 6.017,53.178 6.017,42.236 C6.017,31.294 14.919,22.391 25.862,22.391 C36.804,22.391 45.707,31.294 45.707,42.236 C45.707,53.178 36.804,62.081 25.862,62.081 L25.862,62.081 Z" id="Fill-2" sketch:type="MSShapeGroup"></path>
            </g>
        </g>
    </g>
</svg>