<?xml version="1.0" encoding="UTF-8" standalone="no"?>
<svg width="40px" height="40px" viewBox="0 0 40 40" version="1.1" xmlns="http://www.w3.org/2000/svg" xmlns:xlink="http://www.w3.org/1999/xlink" xmlns:sketch="http://www.bohemiancoding.com/sketch/ns">
    <!-- Generator: Sketch 3.2.2 (9983) - http://www.bohemiancoding.com/sketch -->
    <title>Lince</title>
    <desc>Created with Sketch.</desc>
    <defs></defs>
    <g id="MH-MOBILE" stroke="none" stroke-width="1" fill="none" fill-rule="evenodd" sketch:type="MSPage">
        <g id="MH---Index" sketch:type="MSArtboardGroup" transform="translate(-548.000000, -207.000000)" fill="#80A1B8">
            <g id="HEADER-INDEX" sketch:type="MSLayerGroup" transform="translate(0.000000, -6.000000)">
                <g id="Search" transform="translate(22.000000, 186.000000)" sketch:type="MSShapeGroup">
                    <g id="Lince" transform="translate(526.000000, 27.000000)">
                        <path d="M39.3628369,36.1720588 C40.0507801,35.3920588 39.9968794,34.1782353 39.2425532,33.475 L29.9043972,24.7614706 C29.1500709,24.0579412 27.9719149,24.1223529 27.2839716,24.9023529 L24.4817021,28.0838235 C23.7937589,28.8638235 23.849078,30.0776471 24.6019858,30.7794118 L33.9398582,39.4929412 C34.6941844,40.1964706 35.8723404,40.1338235 36.5602837,39.3538235 L39.3628369,36.1720588 L39.3628369,36.1720588 Z" id="Shape"></path>
                        <path d="M14.3619858,0.147058824 C12.8198582,0.147058824 11.2524823,0.408823529 9.71375887,0.962058824 C2.29361702,3.62264706 -1.63971631,12.0170588 0.926808511,19.7076471 C2.96028369,25.805 8.46893617,29.6317647 14.3602837,29.6317647 C15.9024113,29.6317647 17.4714894,29.3682353 19.0102128,28.8167647 C26.4303546,26.1541176 30.3634043,17.7614706 27.795461,10.0694118 C25.7619858,3.97382353 20.2533333,0.147058824 14.3619858,0.147058824 M14.3619858,4.14264706 C18.7747518,4.14264706 22.7112057,7.04852941 24.1546099,11.3764706 C25.0601418,14.0873529 24.8913475,17.0023529 23.6834043,19.5832353 C22.4720567,22.1641176 20.3668085,24.1023529 17.7503546,25.04 C16.6507801,25.4355882 15.5097872,25.6361765 14.3602837,25.6361765 C9.94751773,25.6361765 6.01276596,22.7285294 4.56907801,18.4005882 C3.6635461,15.6897059 3.83234043,12.7747059 5.04028369,10.1955882 C6.25163121,7.61294118 8.35687943,5.67470588 10.9733333,4.73705882 C12.0729078,4.34147059 13.2124823,4.14264706 14.3619858,4.14264706" id="Shape"></path>
                    </g>
                </g>
            </g>
        </g>
    </g>
</svg>