<?xml version="1.0" encoding="UTF-8" standalone="no"?>
<svg width="51px" height="31px" viewBox="0 0 51 31" version="1.1" xmlns="http://www.w3.org/2000/svg" xmlns:xlink="http://www.w3.org/1999/xlink" xmlns:sketch="http://www.bohemiancoding.com/sketch/ns">
    <!-- Generator: Sketch 3.2.2 (9983) - http://www.bohemiancoding.com/sketch -->
    <title>Master card logo</title>
    <desc>Created with Sketch.</desc>
    <defs></defs>
    <g id="MH-MOBILE" stroke="none" stroke-width="1" fill="none" fill-rule="evenodd" sketch:type="MSPage">
        <g id="MH1-Checkout" sketch:type="MSArtboardGroup" transform="translate(-150.000000, -2074.000000)">
            <g id="Button---EXPRESS-CHECKOUT-3" sketch:type="MSLayerGroup" transform="translate(18.000000, 2042.000000)">
                <g id="Master-card-logo" transform="translate(132.000000, 32.000000)" sketch:type="MSShapeGroup">
                    <g id="Group">
                        <circle id="Oval" fill="#E30613" cx="15.192" cy="15.516" r="14.979"></circle>
                        <path d="M35.302,0.538 C31.431,0.538 27.904,2.005 25.246,4.414 C24.704,4.906 24.2,5.436 23.734,6 L26.76,6 C27.174,6.504 27.555,7.032 27.902,7.587 L22.591,7.587 C22.274,8.097 21.984,8.625 21.729,9.174 L28.765,9.174 C29.006,9.688 29.217,10.215 29.399,10.76 L21.095,10.76 C20.921,11.276 20.776,11.805 20.659,12.345 L29.833,12.345 C30.053,13.368 30.17,14.428 30.17,15.517 C30.17,17.179 29.899,18.781 29.399,20.275 L21.095,20.275 C21.276,20.819 21.488,21.347 21.728,21.862 L28.764,21.862 C28.507,22.41 28.22,22.938 27.9,23.448 L22.591,23.448 C22.939,24.002 23.32,24.531 23.734,25.034 L26.759,25.034 C26.294,25.599 25.789,26.129 25.246,26.62 C27.905,29.028 31.43,30.496 35.301,30.496 C43.574,30.496 50.279,23.79 50.279,15.517 C50.28,7.244 43.575,0.538 35.302,0.538 L35.302,0.538 Z" id="Shape" fill="#F7A600"></path>
                    </g>
                    <g id="Group" transform="translate(1.000000, 11.000000)">
                        <g id="Shape" fill="#11306E">
                            <path d="M10.694,6.156 C10.524,6.136 10.448,6.13 10.331,6.13 C9.41,6.13 8.943,6.447 8.943,7.071 C8.943,7.457 9.171,7.7 9.525,7.7 C10.189,7.7 10.666,7.07 10.694,6.156 L10.694,6.156 Z M11.877,8.91 L10.529,8.91 L10.56,8.269 C10.149,8.775 9.6,9.016 8.856,9.016 C7.974,9.016 7.37,8.328 7.37,7.328 C7.37,5.823 8.421,4.946 10.225,4.946 C10.41,4.946 10.646,4.963 10.888,4.994 C10.938,4.79 10.951,4.704 10.951,4.594 C10.951,4.184 10.668,4.032 9.909,4.032 C9.113,4.024 8.457,4.221 8.187,4.31 C8.204,4.207 8.412,2.921 8.412,2.921 C9.223,2.682 9.757,2.593 10.358,2.593 C11.754,2.593 12.494,3.22 12.493,4.404 C12.496,4.721 12.443,5.113 12.362,5.628 C12.222,6.523 11.919,8.442 11.877,8.91 L11.877,8.91 Z"></path>
                            <path d="M6.691,8.91 L5.064,8.91 L5.996,3.069 L3.916,8.91 L2.808,8.91 L2.67,3.101 L1.691,8.91 L0.169,8.91 L1.441,1.311 L3.779,1.311 L3.921,5.564 L5.347,1.311 L7.948,1.311 L6.691,8.91 Z"></path>
                            <path d="M36.311,6.156 C36.141,6.136 36.066,6.13 35.95,6.13 C35.028,6.13 34.562,6.447 34.562,7.071 C34.562,7.457 34.788,7.7 35.144,7.7 C35.806,7.7 36.284,7.07 36.311,6.156 L36.311,6.156 Z M37.495,8.91 L36.147,8.91 L36.178,8.269 C35.767,8.775 35.219,9.016 34.474,9.016 C33.592,9.016 32.988,8.328 32.988,7.328 C32.988,5.823 34.039,4.946 35.842,4.946 C36.027,4.946 36.262,4.963 36.505,4.994 C36.556,4.79 36.568,4.704 36.568,4.594 C36.568,4.184 36.285,4.032 35.526,4.032 C34.731,4.024 34.074,4.221 33.804,4.31 C33.822,4.207 34.031,2.921 34.031,2.921 C34.84,2.682 35.375,2.593 35.976,2.593 C37.374,2.593 38.113,3.22 38.111,4.404 C38.113,4.721 38.062,5.113 37.979,5.628 C37.84,6.523 37.536,8.442 37.495,8.91 L37.495,8.91 Z"></path>
                            <path d="M19.104,8.815 C18.659,8.956 18.312,9.016 17.936,9.016 C17.105,9.016 16.651,8.539 16.651,7.658 C16.64,7.386 16.771,6.667 16.874,6.012 C16.968,5.434 17.58,1.795 17.58,1.795 L19.196,1.795 L19.008,2.73 L19.984,2.73 L19.764,4.215 L18.784,4.215 C18.596,5.39 18.328,6.854 18.325,7.048 C18.325,7.366 18.495,7.506 18.882,7.506 C19.068,7.506 19.211,7.486 19.32,7.446 L19.104,8.815 L19.104,8.815 Z"></path>
                            <path d="M24.061,8.766 C23.505,8.935 22.97,9.017 22.402,9.016 C20.593,9.014 19.649,8.069 19.649,6.259 C19.649,4.147 20.849,2.592 22.479,2.592 C23.812,2.592 24.663,3.463 24.663,4.827 C24.663,5.28 24.605,5.723 24.463,6.348 L21.244,6.348 C21.135,7.244 21.709,7.616 22.65,7.616 C23.228,7.616 23.75,7.498 24.33,7.228 L24.061,8.766 L24.061,8.766 Z M23.151,5.103 C23.161,4.973 23.322,3.999 22.399,3.999 C21.884,3.999 21.516,4.391 21.367,5.103 L23.151,5.103 L23.151,5.103 Z"></path>
                            <path d="M12.853,4.684 C12.853,5.464 13.232,6.004 14.091,6.409 C14.749,6.719 14.851,6.81 14.851,7.091 C14.851,7.476 14.561,7.651 13.917,7.651 C13.431,7.651 12.981,7.576 12.46,7.407 C12.46,7.407 12.247,8.769 12.236,8.834 C12.605,8.915 12.935,8.989 13.928,9.018 C15.643,9.018 16.436,8.365 16.436,6.953 C16.436,6.104 16.104,5.605 15.29,5.231 C14.609,4.917 14.53,4.848 14.53,4.559 C14.53,4.225 14.801,4.054 15.326,4.054 C15.645,4.054 16.081,4.089 16.494,4.147 L16.725,2.714 C16.304,2.647 15.665,2.594 15.294,2.594 C13.477,2.593 12.847,3.543 12.853,4.684 L12.853,4.684 Z"></path>
                            <path d="M31.969,2.756 C32.42,2.756 32.842,2.873 33.422,3.166 L33.688,1.518 C33.449,1.424 32.611,0.874 31.901,0.874 C30.813,0.874 29.892,1.414 29.246,2.306 C28.302,1.992 27.914,2.624 27.438,3.253 L27.016,3.352 C27.048,3.146 27.077,2.94 27.068,2.731 L25.573,2.731 C25.369,4.644 25.008,6.581 24.726,8.495 L24.651,8.911 L26.278,8.911 C26.549,7.145 26.698,6.017 26.788,5.252 L27.401,4.913 C27.493,4.571 27.779,4.457 28.353,4.471 C28.278,4.873 28.238,5.298 28.238,5.738 C28.238,7.761 29.33,9.018 31.08,9.018 C31.531,9.018 31.918,8.959 32.518,8.796 L32.803,7.064 C32.264,7.329 31.822,7.455 31.422,7.455 C30.476,7.455 29.904,6.756 29.904,5.604 C29.904,3.928 30.755,2.756 31.969,2.756 L31.969,2.756 Z"></path>
                            <path d="M45.736,1.311 L45.374,3.506 C44.931,2.921 44.453,2.497 43.823,2.497 C43.002,2.497 42.255,3.12 41.766,4.035 C41.085,3.893 40.381,3.654 40.381,3.654 L40.38,3.66 C40.434,3.148 40.457,2.836 40.452,2.729 L38.958,2.729 C38.755,4.642 38.393,6.579 38.11,8.493 L38.035,8.909 L39.662,8.909 C39.882,7.482 40.05,6.298 40.173,5.357 C40.73,4.855 41.007,4.418 41.568,4.447 C41.319,5.048 41.174,5.741 41.174,6.451 C41.174,7.996 41.955,9.015 43.138,9.015 C43.734,9.015 44.192,8.808 44.637,8.333 L44.561,8.907 L46.099,8.907 L47.338,1.309 L45.736,1.309 L45.736,1.311 Z M43.703,7.482 C43.149,7.482 42.869,7.071 42.869,6.263 C42.869,5.048 43.393,4.189 44.13,4.189 C44.689,4.189 44.992,4.614 44.992,5.398 C44.992,6.623 44.46,7.482 43.703,7.482 L43.703,7.482 Z"></path>
                        </g>
                        <g id="Shape" fill="#FFFFFF">
                            <path d="M7.158,8.458 L5.532,8.458 L6.464,2.619 L4.384,8.458 L3.275,8.458 L3.138,2.652 L2.159,8.458 L0.637,8.458 L1.909,0.862 L4.248,0.862 L4.313,5.564 L5.89,0.862 L8.416,0.862 L7.158,8.458 Z"></path>
                            <path d="M11.162,5.707 C10.992,5.686 10.917,5.681 10.8,5.681 C9.878,5.681 9.412,5.997 9.412,6.621 C9.412,7.005 9.639,7.251 9.995,7.251 C10.657,7.251 11.134,6.621 11.162,5.707 L11.162,5.707 Z M12.345,8.458 L10.998,8.458 L11.029,7.818 C10.618,8.324 10.07,8.566 9.324,8.566 C8.443,8.566 7.839,7.877 7.839,6.877 C7.839,5.372 8.89,4.495 10.694,4.495 C10.878,4.495 11.114,4.512 11.357,4.544 C11.407,4.34 11.421,4.252 11.421,4.142 C11.421,3.733 11.138,3.581 10.377,3.581 C9.582,3.571 8.926,3.77 8.656,3.858 C8.673,3.756 8.882,2.468 8.882,2.468 C9.692,2.23 10.226,2.141 10.828,2.141 C12.224,2.141 12.964,2.767 12.963,3.952 C12.965,4.269 12.914,4.662 12.832,5.176 C12.689,6.072 12.387,7.992 12.345,8.458 L12.345,8.458 Z"></path>
                            <path d="M34.156,1.066 L33.889,2.715 C33.309,2.424 32.888,2.306 32.436,2.306 C31.222,2.306 30.371,3.478 30.371,5.153 C30.371,6.305 30.943,7.002 31.889,7.002 C32.29,7.002 32.732,6.879 33.27,6.613 L32.984,8.344 C32.385,8.508 31.998,8.568 31.547,8.568 C29.796,8.568 28.705,7.308 28.705,5.287 C28.705,2.572 30.213,0.674 32.368,0.674 C33.079,0.672 33.917,0.972 34.156,1.066 L34.156,1.066 Z"></path>
                            <path d="M36.779,5.707 C36.609,5.686 36.534,5.681 36.417,5.681 C35.496,5.681 35.029,5.997 35.029,6.621 C35.029,7.005 35.256,7.251 35.612,7.251 C36.274,7.251 36.753,6.621 36.779,5.707 L36.779,5.707 Z M37.963,8.458 L36.615,8.458 L36.646,7.818 C36.234,8.324 35.686,8.566 34.942,8.566 C34.06,8.566 33.457,7.877 33.457,6.877 C33.457,5.372 34.507,4.495 36.311,4.495 C36.496,4.495 36.731,4.512 36.974,4.544 C37.024,4.34 37.038,4.252 37.038,4.142 C37.038,3.733 36.756,3.581 35.996,3.581 C35.201,3.571 34.545,3.77 34.275,3.858 C34.293,3.756 34.501,2.468 34.501,2.468 C35.312,2.23 35.845,2.141 36.447,2.141 C37.842,2.141 38.583,2.767 38.581,3.952 C38.585,4.269 38.532,4.662 38.45,5.176 C38.307,6.072 38.005,7.992 37.963,8.458 L37.963,8.458 Z"></path>
                            <path d="M19.572,8.364 C19.127,8.505 18.78,8.566 18.404,8.566 C17.572,8.566 17.119,8.088 17.119,7.209 C17.108,6.936 17.239,6.218 17.342,5.562 C17.436,4.984 18.047,1.345 18.047,1.345 L19.664,1.345 L19.475,2.281 L20.305,2.281 L20.085,3.766 L19.252,3.766 C19.064,4.942 18.796,6.405 18.794,6.598 C18.794,6.917 18.964,7.056 19.352,7.056 C19.536,7.056 19.681,7.038 19.79,6.997 L19.572,8.364 L19.572,8.364 Z"></path>
                            <path d="M24.529,8.315 C23.973,8.486 23.437,8.566 22.87,8.566 C21.06,8.564 20.117,7.62 20.117,5.809 C20.117,3.697 21.317,2.142 22.946,2.142 C24.279,2.142 25.13,3.012 25.13,4.378 C25.13,4.831 25.071,5.274 24.931,5.898 L21.712,5.898 C21.602,6.794 22.177,7.167 23.117,7.167 C23.695,7.167 24.217,7.048 24.798,6.777 L24.529,8.315 L24.529,8.315 Z M23.62,4.652 C23.629,4.522 23.791,3.549 22.868,3.549 C22.354,3.549 21.985,3.942 21.835,4.652 L23.62,4.652 L23.62,4.652 Z"></path>
                            <path d="M13.321,4.234 C13.321,5.015 13.7,5.553 14.559,5.958 C15.218,6.269 15.319,6.36 15.319,6.642 C15.319,7.027 15.029,7.201 14.385,7.201 C13.9,7.201 13.448,7.125 12.927,6.958 C12.927,6.958 12.714,8.319 12.704,8.384 C13.074,8.464 13.403,8.539 14.396,8.568 C16.112,8.568 16.904,7.914 16.904,6.502 C16.904,5.653 16.573,5.155 15.758,4.781 C15.076,4.469 14.998,4.399 14.998,4.11 C14.998,3.776 15.267,3.604 15.793,3.604 C16.112,3.604 16.548,3.638 16.961,3.698 L17.193,2.264 C16.772,2.198 16.134,2.144 15.761,2.144 C13.944,2.142 13.315,3.093 13.321,4.234 L13.321,4.234 Z"></path>
                            <path d="M46.569,8.458 L45.031,8.458 L45.107,7.883 C44.661,8.361 44.204,8.567 43.608,8.567 C42.426,8.567 41.644,7.548 41.644,6.003 C41.644,3.947 42.857,2.215 44.29,2.215 C44.92,2.215 45.398,2.474 45.843,3.059 L46.203,0.864 L47.808,0.864 L46.569,8.458 L46.569,8.458 Z M44.171,7.03 C44.929,7.03 45.46,6.173 45.46,4.949 C45.46,4.165 45.157,3.737 44.598,3.737 C43.861,3.737 43.337,4.598 43.337,5.813 C43.337,6.622 43.618,7.03 44.171,7.03 L44.171,7.03 Z"></path>
                            <path d="M39.427,2.28 C39.223,4.192 38.862,6.129 38.579,8.044 L38.505,8.458 L40.132,8.458 C40.713,4.681 40.854,3.942 41.766,4.035 C41.911,3.261 42.182,2.584 42.383,2.242 C41.702,2.101 41.321,2.486 40.823,3.217 C40.862,2.902 40.935,2.595 40.921,2.281 L39.427,2.281 L39.427,2.28 Z"></path>
                            <path d="M26.042,2.28 C25.838,4.192 25.476,6.129 25.193,8.044 L25.119,8.458 L26.745,8.458 C27.328,4.681 27.467,3.942 28.378,4.035 C28.524,3.261 28.795,2.584 28.996,2.242 C28.315,2.101 27.935,2.486 27.437,3.217 C27.476,2.902 27.549,2.595 27.534,2.281 L26.042,2.281 L26.042,2.28 Z"></path>
                            <path d="M47.284,7.975 C47.284,7.706 47.501,7.491 47.767,7.491 C48.034,7.491 48.25,7.707 48.25,7.975 C48.25,8.241 48.033,8.457 47.767,8.457 C47.501,8.458 47.284,8.241 47.284,7.975 L47.284,7.975 Z M47.768,8.343 C47.971,8.343 48.136,8.179 48.136,7.976 C48.136,7.773 47.971,7.607 47.768,7.607 C47.564,7.607 47.4,7.773 47.4,7.976 C47.4,8.179 47.564,8.343 47.768,8.343 L47.768,8.343 Z M47.702,8.185 L47.603,8.185 L47.603,7.762 L47.783,7.762 C47.82,7.762 47.858,7.763 47.891,7.784 C47.926,7.807 47.946,7.846 47.946,7.889 C47.946,7.938 47.918,7.983 47.873,7.999 L47.951,8.185 L47.841,8.185 L47.776,8.019 L47.703,8.019 L47.703,8.185 L47.702,8.185 Z M47.702,7.946 L47.757,7.946 C47.777,7.946 47.8,7.948 47.818,7.938 C47.834,7.927 47.843,7.907 47.843,7.887 C47.843,7.872 47.833,7.854 47.819,7.844 C47.802,7.835 47.775,7.837 47.756,7.837 L47.703,7.837 L47.703,7.946 L47.702,7.946 Z"></path>
                        </g>
                    </g>
                </g>
            </g>
        </g>
    </g>
</svg>