<?xml version="1.0" encoding="UTF-8" standalone="no"?>
<svg width="119px" height="33px" viewBox="0 0 119 33" version="1.1" xmlns="http://www.w3.org/2000/svg" xmlns:xlink="http://www.w3.org/1999/xlink" xmlns:sketch="http://www.bohemiancoding.com/sketch/ns">
    <!-- Generator: Sketch 3.2.2 (9983) - http://www.bohemiancoding.com/sketch -->
    <title>Pay Pal</title>
    <desc>Created with Sketch.</desc>
    <defs></defs>
    <g id="MH-MOBILE" stroke="none" stroke-width="1" fill="none" fill-rule="evenodd" sketch:type="MSPage">
        <g id="MH1-Checkout" sketch:type="MSArtboardGroup" transform="translate(-58.000000, -1944.000000)">
            <g id="Button---EXPRESS-CHECKOUT-2" sketch:type="MSLayerGroup" transform="translate(18.000000, 1912.000000)">
                <g id="Pay-Pal" transform="translate(40.000000, 32.000000)" sketch:type="MSShapeGroup">
                    <path d="M0.379277108,24.1570435 C0.500722892,24.16 0.505060241,24.0698261 0.523855422,23.9811304 C1.23951807,20.6033043 1.95662651,17.2254783 2.67373494,13.8476522 C3.47180723,10.0884348 4.2713253,6.32921739 5.06795181,2.57 C5.19373494,1.98017391 5.32096386,1.39182609 5.43662651,0.800521739 C5.48144578,0.572869565 5.56096386,0.470869565 5.81975904,0.470869565 C9.5339759,0.481217391 13.2481928,0.454608696 16.9624096,0.485652174 C19.0906024,0.503391304 20.9527711,1.21147826 22.300241,2.99426087 C23.2154217,4.20643478 23.533494,5.6226087 23.4438554,7.1186087 C23.3007229,9.48530435 22.5185542,11.6154783 20.9715663,13.410087 C19.6428916,14.9533913 17.9643373,15.8965217 16.0139759,16.3592174 C14.9224096,16.617913 13.8149398,16.612 12.7045783,16.6090435 C11.5074699,16.6046087 10.3118072,16.6193913 9.11614458,16.6031304 C8.8660241,16.5986957 8.80240964,16.7051304 8.75903614,16.9150435 C8.26024096,19.3497391 7.75277108,21.7844348 7.26120482,24.2206087 C7.20192771,24.5133043 7.10795181,24.6271304 6.78409639,24.6241739 C4.65012048,24.6034783 2.5146988,24.6123478 0.380722892,24.6123478 C0.379277108,24.460087 0.379277108,24.3078261 0.379277108,24.1570435 L0.379277108,24.1570435 Z M13.1498795,5.41121739 L13.1498795,5.38608696 C12.6062651,5.38608696 12.0640964,5.39643478 11.5204819,5.38017391 C11.3166265,5.37573913 11.24,5.45852174 11.2009639,5.64626087 C11.0896386,6.18730435 10.9681928,6.72686957 10.8481928,7.26643478 C10.5228916,8.72695652 10.2004819,10.186 9.87084337,11.6450435 C9.81012048,11.9155652 9.82457831,12.056 10.1628916,12.0397391 C10.7556627,12.0116522 11.3484337,12.027913 11.9412048,12.0323478 C12.5209639,12.0353043 13.1050602,12.061913 13.673253,11.9333043 C15.3301205,11.5578261 16.6746988,10.0928696 16.9537349,8.38104348 C17.2009639,6.86878261 16.3942169,5.63147826 14.96,5.426 C14.3672289,5.34026087 13.7542169,5.41121739 13.1498795,5.41121739 L13.1498795,5.41121739 Z" id="Fill-1" fill="#11306E"></path>
                    <path d="M41.1807229,32.6378261 C42.4862651,30.3568696 43.7455422,28.0448696 45.1204819,25.8082609 C45.6279518,24.981913 45.6655422,24.2087826 45.5310843,23.3188696 C45.2636145,21.5523478 45.046747,19.779913 44.8081928,18.0104348 C44.546506,16.0650435 44.2819277,14.1196522 44.0231325,12.1727826 C43.7643373,10.214087 43.5026506,8.25686957 43.2510843,6.29817391 C43.1816867,5.76156522 43.1961446,5.76008696 43.726747,5.76008696 C45.4906024,5.76008696 47.2544578,5.76895652 49.0212048,5.75269565 C49.3233735,5.74973913 49.3840964,5.85765217 49.4072289,6.13852174 C49.5604819,7.98486957 49.7354217,9.82678261 49.900241,11.6716522 C50.0086747,12.9133913 50.1098795,14.1566087 50.2183133,15.3983478 C50.2587952,15.8743478 50.3079518,16.3488696 50.3542169,16.8396522 C50.5074699,16.7790435 50.5436145,16.6563478 50.5985542,16.5513913 C52.4795181,13.070087 54.3604819,9.58878261 56.2313253,6.10304348 C56.3672289,5.85321739 56.5060241,5.74826087 56.7995181,5.75121739 C58.7845783,5.76747826 60.7710843,5.76008696 62.8081928,5.76008696 C62.4987952,6.3366087 62.2096386,6.88504348 61.9118072,7.42904348 C59.2718072,12.2481739 56.6274699,17.0673043 53.9874699,21.8864348 C52.1151807,25.3012174 50.2443373,28.716 48.3763855,32.1322609 C48.2881928,32.2933913 48.1580723,32.4397391 48.1421687,32.6378261 L41.1807229,32.6378261" id="Fill-2" fill="#11306E"></path>
                    <path d="M118.858313,3.5633913 C118.531566,3.60921739 118.453494,3.4613913 118.466506,3.13765217 C118.493976,2.4753913 118.475181,1.81165217 118.475181,1.0813913 C118.316145,1.18191304 118.298795,1.2853913 118.265542,1.38295652 C118.048675,2.02304348 117.826024,2.66165217 117.612048,3.30469565 C117.565783,3.44956522 117.519518,3.55156522 117.344578,3.55452174 C117.159518,3.55747826 117.126265,3.42886957 117.081446,3.29582609 C116.887711,2.71486957 116.688193,2.1353913 116.500241,1.55147826 C116.459759,1.43026087 116.436627,1.31347826 116.260241,1.22330435 C116.260241,1.84269565 116.27759,2.4266087 116.25012,3.00904348 C116.242892,3.19086957 116.436627,3.53678261 116.060723,3.53826087 C115.663133,3.53973913 115.858313,3.17756522 115.853976,2.98834783 C115.82506,2.09547826 115.830843,1.20113043 115.823614,0.306782609 L116.49012,0.306782609 C116.764819,1.18191304 117.04241,2.05852174 117.318554,2.93365217 C117.698795,2.05704348 118.041446,1.20408696 118.266988,0.306782609 C118.858313,0.306782609 118.858313,0.306782609 118.858313,0.912869565 L118.858313,3.5633913" id="Fill-3" fill="#0058A0"></path>
                    <path d="M115.453494,0.306782609 C115.496867,0.624608696 115.358072,0.702956522 115.057349,0.692608696 C114.37494,0.670434783 114.377831,0.686695652 114.380723,1.38147826 C114.386506,1.9993913 114.386506,2.61582609 114.38506,3.23373913 C114.38506,3.38008696 114.415422,3.54565217 114.178313,3.55156522 C113.939759,3.55747826 113.973012,3.39486957 113.973012,3.24556522 C113.973012,2.49017391 113.962892,1.73330435 113.978795,0.977913043 C113.983133,0.747304348 113.92241,0.651217391 113.689639,0.680782609 C113.566747,0.697043478 113.439518,0.666 113.320964,0.688173913 C113.005783,0.747304348 112.900241,0.606869565 112.937831,0.305304348 C113.77494,0.306782609 114.612048,0.306782609 115.453494,0.306782609" id="Fill-4" fill="#0058A0"></path>
                    <path d="M71.8009639,0.481217391 C73.6154217,0.481217391 75.4298795,0.447217391 77.2414458,0.490086957 C79.3913253,0.540347826 81.2375904,1.30313043 82.5575904,3.11991304 C83.2371084,4.05713043 83.5710843,5.13330435 83.6144578,6.29226087 C83.7142169,8.98121739 82.8915663,11.3626957 81.1812048,13.387913 C79.7657831,15.0642609 77.9180723,16.0266087 75.7956627,16.4375652 C74.5609639,16.6770435 73.313253,16.5927826 72.0698795,16.6031304 C71.1792771,16.6105217 70.293012,16.617913 69.4024096,16.5972174 C69.1190361,16.5913043 69.0207229,16.6992174 68.9628916,16.9638261 C68.446747,19.3970435 67.9146988,21.8287826 67.3985542,24.262 C67.3407229,24.534 67.2322892,24.6197391 66.9604819,24.6182609 C64.9739759,24.6064348 62.9874699,24.6064348 60.9995181,24.6167826 C60.7074699,24.6182609 60.6496386,24.5413913 60.7118072,24.2486957 C61.2944578,21.5346087 61.8626506,18.8175652 62.4380723,16.1005217 C62.9744578,13.5682609 63.5137349,11.036 64.0515663,8.50373913 C64.586506,5.98330435 65.1344578,3.46730435 65.6390361,0.940956522 C65.7228916,0.518173913 65.893494,0.467913043 66.2462651,0.470869565 C68.0968675,0.485652174 69.9489157,0.47826087 71.7980723,0.47826087 L71.7980723,0.481217391 L71.8009639,0.481217391 L71.8009639,0.481217391 Z M71.8515663,12.0293913 L71.8515663,12.0412174 C72.4038554,12.0412174 72.9836145,12.1446957 73.5098795,12.022 C75.3387952,11.6006957 76.6226506,10.520087 77.1012048,8.60278261 C77.5407229,6.84956522 76.4216867,5.39052174 74.6621687,5.38904348 C73.6862651,5.38756522 72.713253,5.39791304 71.7387952,5.38017391 C71.4713253,5.37573913 71.3686747,5.46886957 71.3224096,5.7246087 C71.2168675,6.30408696 71.0910843,6.88208696 70.9696386,7.4586087 C70.6746988,8.85852174 70.3739759,10.259913 70.0775904,11.6598261 C70.0240964,11.9096522 70.0457831,12.0589565 70.3710843,12.0382609 C70.8626506,12.0057391 71.3571084,12.0293913 71.8515663,12.0293913 L71.8515663,12.0293913 Z" id="Fill-5" fill="#0058A0"></path>
                    <path d="M85.3016867,11.1616522 C85.3840964,10.424 85.4592771,9.73956522 85.540241,9.05513043 C85.626988,8.31747826 85.7209639,7.58130435 85.8019277,6.84365217 C85.8236145,6.65147826 85.8973494,6.55982609 86.0881928,6.51843478 C87.1320482,6.28782609 88.1686747,6.00843478 89.2168675,5.81182609 C90.833253,5.51026087 92.4539759,5.31069565 94.1108434,5.42747826 C95.3325301,5.51321739 96.5368675,5.64921739 97.6949398,6.06608696 C99.0380723,6.55095652 100.168675,7.31078261 100.758554,8.70773913 C101.172048,9.67895652 101.198072,10.7063478 100.991325,11.7145217 C100.28,15.1588696 99.5296386,18.5958261 98.7922892,22.0342609 C98.6289157,22.7955652 98.4496386,23.5524348 98.3050602,24.3181739 C98.260241,24.5635652 98.1561446,24.6167826 97.9349398,24.6167826 C96.0713253,24.6108696 94.2106024,24.6093913 92.3455422,24.6182609 C92.1026506,24.6197391 92.0549398,24.5517391 92.1113253,24.3107826 C92.2168675,23.848087 92.3455422,23.3868696 92.3831325,22.9034783 C92.2327711,22.8753913 92.1561446,22.9877391 92.066506,23.0601739 C90.253494,24.5310435 88.1946988,25.185913 85.8944578,24.9124348 C84.1190361,24.7010435 82.6775904,23.8466087 82.1513253,22.018 C81.3951807,19.394087 81.8838554,16.9963478 83.8819277,15.0583478 C84.7653012,14.203913 85.8568675,13.6983478 87.0077108,13.3302609 C89.1792771,12.6354783 91.413012,12.4255652 93.6756627,12.4137391 L93.9344578,12.4137391 C94.6819277,12.4078261 94.739759,12.3457391 94.7122892,11.574087 C94.6819277,10.7329565 94.1440964,10.186 93.1927711,9.99678261 C92.013012,9.76173913 90.8375904,9.86669565 89.6650602,10.0352174 C88.1903614,10.2466087 86.7460241,10.5925217 85.3016867,11.1616522 L85.3016867,11.1616522 Z M92.4380723,16.612 C91.9985542,16.6312174 91.6371084,16.6282609 91.2828916,16.6681739 C90.419759,16.7657391 89.5710843,16.9623478 88.8959036,17.5521739 C87.8853012,18.4332174 87.6684337,19.774 88.9638554,20.5515652 C89.4901205,20.867913 90.0698795,20.8516522 90.6496386,20.754087 C91.9522892,20.5353043 92.9253012,19.8922609 93.2954217,18.5263478 C93.4457831,17.972 93.5224096,17.3969565 93.6510843,16.8352174 C93.7060241,16.5957391 93.5585542,16.6149565 93.4255422,16.6134783 C93.0698795,16.6075652 92.7098795,16.612 92.4380723,16.612 L92.4380723,16.612 Z" id="Fill-6" fill="#0058A0"></path>
                    <path d="M25.0255422,11.1675652 C25.139759,10.1564348 25.2481928,9.20886957 25.3595181,8.25982609 C25.4173494,7.772 25.4853012,7.28713043 25.5387952,6.79930435 C25.553253,6.66330435 25.5706024,6.56130435 25.726747,6.52582609 C26.8891566,6.25973913 28.0428916,5.94191304 29.2154217,5.72756522 C31.7368675,5.26634783 34.2626506,5.19834783 36.7580723,5.91086957 C37.9392771,6.24791304 39.0091566,6.79634783 39.7812048,7.82373913 C40.6139759,8.92947826 40.8048193,10.2052174 40.5445783,11.5149565 C39.8361446,15.076087 39.0655422,18.6224348 38.3195181,22.1746957 C38.1662651,22.9005217 38.0086747,23.6233913 37.8742169,24.3521739 C37.8351807,24.5606087 37.7527711,24.6138261 37.5575904,24.6123478 C35.6693976,24.6064348 33.7812048,24.6049565 31.893012,24.6153043 C31.6371084,24.6167826 31.6139759,24.539913 31.6718072,24.3093043 C31.793253,23.8273913 31.8843373,23.3366087 32.0057831,22.7630435 C31.2438554,23.446 30.4833735,23.9737391 29.6173494,24.3255652 C28.180241,24.9094783 26.7098795,25.1504348 25.1686747,24.8444348 C23.2645783,24.466 21.953253,23.1163478 21.6944578,21.1369565 C21.4024096,18.9047826 21.8260241,16.8692174 23.4438554,15.2224348 C24.4848193,14.1625217 25.7860241,13.5771304 27.1754217,13.178 C29.1706024,12.6044348 31.2163855,12.4211304 33.2795181,12.4033913 C33.4515663,12.401913 33.626506,12.3738261 33.7956627,12.3915652 C34.173012,12.4329565 34.2655422,12.2363478 34.2872289,11.8948696 C34.3493976,10.8896522 33.7956627,10.1948696 32.7720482,9.99234783 C31.4404819,9.72773913 30.1219277,9.89034783 28.8048193,10.1076522 C27.5296386,10.3234783 26.2804819,10.6413043 25.0255422,11.1675652 L25.0255422,11.1675652 Z M27.7768675,18.8234783 C27.7479518,19.8434783 28.1093976,20.2884348 28.6674699,20.5929565 C29.1951807,20.8812174 29.7575904,20.8368696 30.3272289,20.7466957 C31.7657831,20.5175652 32.7185542,19.632087 32.9946988,18.2469565 C33.0857831,17.7916522 33.1508434,17.3289565 33.2679518,16.8795652 C33.3301205,16.6326957 33.2578313,16.5986957 33.0481928,16.6016522 C32.5320482,16.6090435 32.013012,16.5809565 31.4954217,16.612 C30.6062651,16.6637391 29.7257831,16.7953043 28.9436145,17.2713043 C28.2525301,17.6926087 27.8086747,18.2942609 27.7768675,18.8234783 L27.7768675,18.8234783 Z" id="Fill-7" fill="#11306E"></path>
                    <path d="M104.263133,24.6093913 C103.339277,24.6093913 102.413976,24.5990435 101.49012,24.6153043 C101.208193,24.6197391 101.125783,24.5591304 101.190843,24.2575652 C101.776386,21.5434783 102.353253,18.827913 102.925783,16.1108696 C103.337831,14.1566087 103.729639,12.197913 104.143133,10.2436522 C104.675181,7.72321739 105.226024,5.20721739 105.765301,2.68973913 C105.905542,2.03930435 106.057349,1.39034783 106.178795,0.735478261 C106.220723,0.503391304 106.306024,0.416173913 106.537349,0.417652174 C108.437108,0.423565217 110.336867,0.422086957 112.236627,0.419130435 C112.498313,0.419130435 112.595181,0.463478261 112.522892,0.78573913 C111.325783,6.30408696 110.140241,11.8268696 108.956145,17.3481739 C108.463133,19.6557391 107.968675,21.9633043 107.488675,24.2753043 C107.435181,24.5443478 107.33253,24.6197391 107.076627,24.6153043 C106.141205,24.602 105.201446,24.6093913 104.266024,24.6093913 L104.263133,24.6093913" id="Fill-8" fill="#0058A0"></path>
                </g>
            </g>
        </g>
    </g>
</svg>