<?xml version="1.0" encoding="UTF-8" standalone="no"?>
<svg width="54px" height="58px" viewBox="0 0 54 58" version="1.1" xmlns="http://www.w3.org/2000/svg" xmlns:xlink="http://www.w3.org/1999/xlink" xmlns:sketch="http://www.bohemiancoding.com/sketch/ns">
    <!-- Generator: Sketch 3.2.2 (9983) - http://www.bohemiancoding.com/sketch -->
    <title>Imported Layers 10</title>
    <desc>Created with Sketch.</desc>
    <defs></defs>
    <g id="MH-MOBILE" stroke="none" stroke-width="1" fill="none" fill-rule="evenodd" sketch:type="MSPage">
        <g id="MH1-Item-2" sketch:type="MSArtboardGroup" transform="translate(-424.000000, -2196.000000)" fill="#00CCCC">
            <path d="M454.461102,2206.68082 L450.140102,2206.68082 L456.057102,2197.15282 C456.271102,2196.80382 456.190102,2196.41382 455.869102,2196.15982 C455.548102,2195.90682 455.088102,2195.96582 454.799102,2196.25482 C446.618102,2204.43682 424.865102,2208.95482 424.646102,2208.99982 C424.275102,2209.07582 424.006102,2209.40682 424.000102,2209.78582 C423.994102,2210.16482 424.253102,2210.50082 424.622102,2210.58782 C424.841102,2210.63882 446.609102,2215.84382 454.799102,2224.03482 C454.955102,2224.19182 455.162102,2224.27282 455.369102,2224.27282 C455.542102,2224.27282 455.716102,2224.21782 455.863102,2224.10482 C456.184102,2223.85682 456.271102,2223.55382 456.066102,2223.20382 L450.399102,2213.68082 L454.461102,2213.68082 C463.515102,2213.68082 470.881102,2220.95882 470.881102,2230.18082 C470.881102,2239.40182 463.515102,2246.68082 454.461102,2246.68082 L437.464102,2246.68082 L437.464102,2253.68082 L454.461102,2253.68082 C467.075102,2253.68082 477.338102,2242.96282 477.338102,2230.18082 C477.338102,2217.39882 467.075102,2206.68082 454.461102,2206.68082" id="Imported-Layers-10" sketch:type="MSShapeGroup"></path>
        </g>
    </g>
</svg>