<?xml version="1.0" encoding="UTF-8" standalone="no"?>
<svg width="42px" height="46px" viewBox="0 0 42 46" version="1.1" xmlns="http://www.w3.org/2000/svg" xmlns:xlink="http://www.w3.org/1999/xlink" xmlns:sketch="http://www.bohemiancoding.com/sketch/ns">
    <!-- Generator: Sketch 3.2.2 (9983) - http://www.bohemiancoding.com/sketch -->
    <title>Sopping bag</title>
    <desc>Created with Sketch.</desc>
    <defs></defs>
    <g id="MH-MOBILE" stroke="none" stroke-width="1" fill="none" fill-rule="evenodd" sketch:type="MSPage">
        <g id="MH---Index" sketch:type="MSArtboardGroup" transform="translate(-576.000000, -56.000000)">
            <g id="HEADER-INDEX" sketch:type="MSLayerGroup" transform="translate(0.000000, -6.000000)">
                <g id="Sopping-bag" transform="translate(576.000000, 62.000000)" sketch:type="MSShapeGroup">
                    <path d="M0.753,45.898 C0.855,44.86 0.945,43.82 1.062,42.784 C1.402,39.758 1.752,36.733 2.099,33.707 C2.474,30.429 2.851,27.152 3.226,23.874 C3.568,20.878 3.909,17.882 4.251,14.886 C4.363,13.908 4.477,12.931 4.593,11.922 L11.842,11.922 C11.842,11.295 11.833,10.701 11.843,10.108 C11.901,6.746 13.331,4.111 16.159,2.311 C21.71,-1.221 29.149,2.222 30.082,8.725 C30.162,9.284 30.168,9.855 30.188,10.421 C30.205,10.896 30.191,11.373 30.191,11.903 L37.436,11.903 C37.554,12.916 37.668,13.878 37.778,14.841 C38.157,18.148 38.536,21.456 38.913,24.763 C39.285,28.026 39.654,31.29 40.027,34.553 C40.402,37.831 40.782,41.108 41.154,44.386 C41.211,44.888 41.238,45.394 41.278,45.898 L0.753,45.898 L0.753,45.898 Z M13.668,13.777 C13.668,14.433 13.656,15.043 13.678,15.652 C13.682,15.771 13.796,15.911 13.897,15.998 C14.737,16.73 14.821,17.917 14.077,18.702 C13.361,19.458 12.159,19.46 11.435,18.707 C10.684,17.926 10.757,16.755 11.6,16.006 C11.686,15.93 11.819,15.835 11.821,15.746 C11.84,15.097 11.831,14.448 11.831,13.8 L6.221,13.8 C5.068,23.888 3.92,33.939 2.769,44.01 L39.261,44.01 C38.107,33.91 36.958,23.858 35.807,13.794 L30.19,13.794 C30.19,14.361 30.165,14.898 30.202,15.43 C30.216,15.637 30.32,15.888 30.469,16.026 C31.268,16.77 31.336,17.932 30.595,18.705 C29.871,19.461 28.673,19.459 27.954,18.702 C27.208,17.917 27.289,16.728 28.133,16 C28.219,15.926 28.347,15.831 28.35,15.743 C28.369,15.092 28.36,14.441 28.36,13.776 C23.444,13.777 18.591,13.777 13.668,13.777 L13.668,13.777 Z M28.359,11.909 C28.359,11.184 28.372,10.5 28.354,9.816 C28.344,9.459 28.303,9.1 28.233,8.75 C27.429,4.703 23.728,2.114 19.661,2.888 C15.507,3.678 13.094,7.359 13.737,11.909 L28.359,11.909 L28.359,11.909 Z" id="Fill-1" fill="#FFFFFF"></path>
                    <path d="M13.668,13.777 L28.361,13.777 C28.361,14.442 28.37,15.094 28.351,15.744 C28.348,15.832 28.22,15.927 28.134,16.001 C27.29,16.728 27.209,17.917 27.955,18.703 C28.674,19.46 29.872,19.461 30.596,18.706 C31.337,17.933 31.269,16.771 30.47,16.027 C30.321,15.888 30.218,15.637 30.203,15.431 C30.166,14.899 30.191,14.362 30.191,13.795 L35.808,13.795 C36.958,23.859 38.107,33.911 39.262,44.011 L2.77,44.011 C3.921,33.94 5.069,23.889 6.222,13.801 L11.832,13.801 C11.832,14.449 11.841,15.098 11.822,15.747 C11.819,15.836 11.687,15.93 11.601,16.007 C10.758,16.756 10.685,17.927 11.436,18.708 C12.16,19.461 13.362,19.459 14.078,18.703 C14.822,17.918 14.738,16.731 13.898,15.999 C13.797,15.911 13.683,15.772 13.679,15.653 C13.656,15.043 13.668,14.433 13.668,13.777" id="Fill-2" fill="#FFFFFF"></path>
                    <path d="M33.834,19.817 C31.611,17.461 28.064,19.116 25.945,20.68 C24.311,21.887 22.727,23.382 21.496,25.086 C20.134,22.453 18.621,19.804 15.978,18.374 C12.449,16.465 8.559,18.185 7.864,22.127 C7.144,26.207 9.284,30.439 11.524,33.696 C13.971,37.256 17.256,40.425 21.294,42.072 C22.201,42.441 22.86,41.93 23.095,41.213 C23.412,41.185 23.733,41.051 24.024,40.773 C27.339,37.616 30.606,34.271 33.184,30.47 C35.293,27.362 36.779,22.939 33.834,19.817 L33.834,19.817 Z M29.538,30.152 C27.283,33.196 24.518,35.927 21.784,38.531 C21.703,38.608 21.635,38.688 21.576,38.769 C18.85,37.487 16.555,35.151 14.766,32.797 C12.917,30.364 11.173,27.344 10.913,24.238 C10.823,23.161 10.926,21.905 11.714,21.095 C12.533,20.254 14.194,20.97 14.976,21.459 C17.497,23.031 18.69,26.674 20.049,29.16 C20.773,30.481 22.466,29.963 22.946,28.781 C23.688,26.951 25.598,25.055 27.19,23.704 C28.163,22.88 30.814,20.9 31.76,22.249 C33.551,24.802 31.028,28.139 29.538,30.152 L29.538,30.152 Z" id="Fill-3" fill="#6FA6BC"></path>
                </g>
            </g>
        </g>
    </g>
</svg>