<?xml version="1.0" encoding="UTF-8" standalone="no"?>
<svg width="42px" height="45px" viewBox="0 0 42 45" version="1.1" xmlns="http://www.w3.org/2000/svg" xmlns:xlink="http://www.w3.org/1999/xlink" xmlns:sketch="http://www.bohemiancoding.com/sketch/ns">
    <!-- Generator: Sketch 3.2.2 (9983) - http://www.bohemiancoding.com/sketch -->
    <title>Fill 13</title>
    <desc>Created with Sketch.</desc>
    <defs></defs>
    <g id="MH-MOBILE" stroke="none" stroke-width="1" fill="none" fill-rule="evenodd" sketch:type="MSPage">
        <g id="MH1-Item-2" sketch:type="MSArtboardGroup" transform="translate(-52.000000, -1434.000000)" fill="#FFFFFF">
            <g id="Button---ADD-TO-CART" sketch:type="MSLayerGroup" transform="translate(21.000000, 1409.000000)">
                <path d="M31.0452962,69.9999376 C31.1508502,68.9619376 31.2439861,67.9219376 31.3650627,66.8859376 C31.7169094,63.8599376 32.0791045,60.8349376 32.4381951,57.8089376 C32.8262613,54.5309376 33.2163972,51.2539376 33.6044634,47.9759376 C33.9583798,44.9799376 34.3112613,41.9839376 34.6651777,38.9879376 C34.7810801,38.0099376 34.8990523,37.0329376 35.0190941,36.0239376 L42.5206725,36.0239376 C42.5206725,35.3969376 42.5113589,34.8029376 42.5217073,34.2099376 C42.5817282,30.8479376 44.061554,28.2129376 46.9880906,26.4129376 C52.7325052,22.8809376 60.4307038,26.3239376 61.3962125,32.8269376 C61.479,33.3859376 61.4852091,33.9569376 61.5059059,34.5229376 C61.5234983,34.9979376 61.5090105,35.4749376 61.5090105,36.0049376 L69.0064495,36.0049376 C69.128561,37.0179376 69.2465331,37.9799376 69.3603659,38.9429376 C69.7525714,42.2499376 70.144777,45.5579376 70.5349129,48.8649376 C70.9198746,52.1279376 71.3017317,55.3919376 71.6877282,58.6549376 C72.0757944,61.9329376 72.4690348,65.2099376 72.8539965,68.4879376 C72.9129826,68.9899376 72.9409233,69.4959376 72.9823171,69.9999376 L31.0452962,69.9999376 L31.0452962,69.9999376 Z M44.4102962,37.8789376 C44.4102962,38.5349376 44.397878,39.1449376 44.4206446,39.7539376 C44.424784,39.8729376 44.5427561,40.0129376 44.6472753,40.0999376 C45.5165436,40.8319376 45.6034704,42.0189376 44.833547,42.8039376 C44.0925993,43.5599376 42.8487178,43.5619376 42.0994913,42.8089376 C41.322324,42.0279376 41.3978676,40.8569376 42.2702404,40.1079376 C42.3592369,40.0319376 42.4968711,39.9369376 42.4989408,39.8479376 C42.5186028,39.1989376 42.5092892,38.5499376 42.5092892,37.9019376 L36.7038188,37.9019376 C35.5106446,47.9899376 34.3226446,58.0409376 33.1315401,68.1119376 L70.8950383,68.1119376 C69.7008293,58.0119376 68.5117944,47.9599376 67.3206899,37.8959376 L61.5079756,37.8959376 C61.5079756,38.4629376 61.4821045,38.9999376 61.5203937,39.5319376 C61.5348815,39.7389376 61.6425052,39.9899376 61.7966969,40.1279376 C62.6235366,40.8719376 62.6939059,42.0339376 61.9270871,42.8069376 C61.1778606,43.5629376 59.9381185,43.5609376 59.1940662,42.8039376 C58.4220732,42.0189376 58.5058955,40.8299376 59.3793031,40.1019376 C59.4682997,40.0279376 59.6007596,39.9329376 59.6038641,39.8449376 C59.6235261,39.1939376 59.6142125,38.5429376 59.6142125,37.8779376 C54.5269233,37.8789376 49.5048293,37.8789376 44.4102962,37.8789376 L44.4102962,37.8789376 Z M59.6131777,36.0109376 C59.6131777,35.2859376 59.6266307,34.6019376 59.6080035,33.9179376 C59.5976551,33.5609376 59.5552265,33.2019376 59.4827875,32.8519376 C58.6507735,28.8049376 54.8208188,26.2159376 50.6121115,26.9899376 C46.3133728,27.7799376 43.8162962,31.4609376 44.4817003,36.0109376 L59.6131777,36.0109376 L59.6131777,36.0109376 Z" id="Fill-13" sketch:type="MSShapeGroup"></path>
            </g>
        </g>
    </g>
</svg>