<?xml version="1.0" encoding="UTF-8" standalone="no"?>
<svg width="42px" height="45px" viewBox="0 0 42 45" version="1.1" xmlns="http://www.w3.org/2000/svg" xmlns:xlink="http://www.w3.org/1999/xlink" xmlns:sketch="http://www.bohemiancoding.com/sketch/ns">
    <!-- Generator: Sketch 3.2.2 (9983) - http://www.bohemiancoding.com/sketch -->
    <title>Fill 13 + Fill 12</title>
    <desc>Created with Sketch.</desc>
    <defs></defs>
    <g id="MH-MOBILE" stroke="none" stroke-width="1" fill="none" fill-rule="evenodd" sketch:type="MSPage">
        <g id="MH1-Item-2" sketch:type="MSArtboardGroup" transform="translate(-52.000000, -1434.000000)" fill="#FFFFFF">
            <g id="Button---ADD-TO-CART" sketch:type="MSLayerGroup" transform="translate(21.000000, 1409.000000)">
                <g id="Fill-13-+-Fill-12" transform="translate(31.000000, 25.000000)" sketch:type="MSShapeGroup">
                    <path d="M0.0452961672,44.9999376 C0.150850174,43.9619376 0.243986063,42.9219376 0.365062718,41.8859376 C0.716909408,38.8599376 1.07910453,35.8349376 1.43819512,32.8089376 C1.82626132,29.5309376 2.21639721,26.2539376 2.60446341,22.9759376 C2.95837979,19.9799376 3.31126132,16.9839376 3.6651777,13.9879376 C3.78108014,13.0099376 3.89905226,12.0329376 4.01909408,11.0239376 L11.5206725,11.0239376 C11.5206725,10.3969376 11.5113589,9.80293757 11.5217073,9.20993757 C11.5817282,5.84793757 13.061554,3.21293757 15.9880906,1.41293757 C21.7325052,-2.11906243 29.4307038,1.32393757 30.3962125,7.82693757 C30.479,8.38593757 30.4852091,8.95693757 30.5059059,9.52293757 C30.5234983,9.99793757 30.5090105,10.4749376 30.5090105,11.0049376 L38.0064495,11.0049376 C38.128561,12.0179376 38.2465331,12.9799376 38.3603659,13.9429376 C38.7525714,17.2499376 39.144777,20.5579376 39.5349129,23.8649376 C39.9198746,27.1279376 40.3017317,30.3919376 40.6877282,33.6549376 C41.0757944,36.9329376 41.4690348,40.2099376 41.8539965,43.4879376 C41.9129826,43.9899376 41.9409233,44.4959376 41.9823171,44.9999376 L0.0452961672,44.9999376 L0.0452961672,44.9999376 Z M13.4102962,12.8789376 C13.4102962,13.5349376 13.397878,14.1449376 13.4206446,14.7539376 C13.424784,14.8729376 13.5427561,15.0129376 13.6472753,15.0999376 C14.5165436,15.8319376 14.6034704,17.0189376 13.833547,17.8039376 C13.0925993,18.5599376 11.8487178,18.5619376 11.0994913,17.8089376 C10.322324,17.0279376 10.3978676,15.8569376 11.2702404,15.1079376 C11.3592369,15.0319376 11.4968711,14.9369376 11.4989408,14.8479376 C11.5186028,14.1989376 11.5092892,13.5499376 11.5092892,12.9019376 L5.70381882,12.9019376 C4.5106446,22.9899376 3.3226446,33.0409376 2.13154007,43.1119376 L39.8950383,43.1119376 C38.7008293,33.0119376 37.5117944,22.9599376 36.3206899,12.8959376 L30.5079756,12.8959376 C30.5079756,13.4629376 30.4821045,13.9999376 30.5203937,14.5319376 C30.5348815,14.7389376 30.6425052,14.9899376 30.7966969,15.1279376 C31.6235366,15.8719376 31.6939059,17.0339376 30.9270871,17.8069376 C30.1778606,18.5629376 28.9381185,18.5609376 28.1940662,17.8039376 C27.4220732,17.0189376 27.5058955,15.8299376 28.3793031,15.1019376 C28.4682997,15.0279376 28.6007596,14.9329376 28.6038641,14.8449376 C28.6235261,14.1939376 28.6142125,13.5429376 28.6142125,12.8779376 C23.5269233,12.8789376 18.5048293,12.8789376 13.4102962,12.8789376 L13.4102962,12.8789376 Z M28.6131777,11.0109376 C28.6131777,10.2859376 28.6266307,9.60193757 28.6080035,8.91793757 C28.5976551,8.56093757 28.5552265,8.20193757 28.4827875,7.85193757 C27.6507735,3.80493757 23.8208188,1.21593757 19.6121115,1.98993757 C15.3133728,2.77993757 12.8162962,6.46093757 13.4817003,11.0109376 L28.6131777,11.0109376 L28.6131777,11.0109376 Z" id="Fill-13"></path>
                    <path d="M13.3927038,13.0000624 L28.5976551,13.0000624 C28.5976551,13.6650624 28.6069686,14.3170624 28.5873066,14.9670624 C28.5842021,15.0550624 28.4517422,15.1500624 28.3627456,15.2240624 C27.489338,15.9510624 27.4055157,17.1400624 28.1775087,17.9260624 C28.921561,18.6830624 30.1613031,18.6840624 30.9105296,17.9290624 C31.6773484,17.1560624 31.6069791,15.9940624 30.7801394,15.2500624 C30.6259477,15.1110624 30.5193589,14.8600624 30.5038362,14.6540624 C30.465547,14.1220624 30.4914181,13.5850624 30.4914181,13.0180624 L36.3041324,13.0180624 C37.4942021,23.0820624 38.6832369,33.1340624 39.8784808,43.2340624 L2.11498258,43.2340624 C3.30608711,33.1630624 4.49408711,23.1120624 5.68726132,13.0240624 L11.4927317,13.0240624 C11.4927317,13.6720624 11.5020453,14.3210624 11.4823833,14.9700624 C11.4792787,15.0590624 11.3426794,15.1530624 11.2536829,15.2300624 C10.3813101,15.9790624 10.3057666,17.1500624 11.0829338,17.9310624 C11.8321603,18.6840624 13.0760418,18.6820624 13.8169895,17.9260624 C14.5869129,17.1410624 14.4999861,15.9540624 13.6307178,15.2220624 C13.5261986,15.1340624 13.4082265,14.9950624 13.4040871,14.8760624 C13.3802857,14.2660624 13.3927038,13.6560624 13.3927038,13.0000624" id="Fill-12"></path>
                </g>
            </g>
        </g>
    </g>
</svg>