<?xml version="1.0" encoding="UTF-8" standalone="no"?>
<svg width="75px" height="75px" viewBox="0 0 75 75" version="1.1" xmlns="http://www.w3.org/2000/svg" xmlns:xlink="http://www.w3.org/1999/xlink" xmlns:sketch="http://www.bohemiancoding.com/sketch/ns">
    <!-- Generator: Sketch 3.2.2 (9983) - http://www.bohemiancoding.com/sketch -->
    <title>Imported Layers</title>
    <desc>Created with Sketch.</desc>
    <defs></defs>
    <g id="MH-MOBILE" stroke="none" stroke-width="1" fill="none" fill-rule="evenodd" sketch:type="MSPage">
        <g id="MH1-Checkout" sketch:type="MSArtboardGroup" transform="translate(-58.000000, -2182.000000)">
            <g id="Imported-Layers" sketch:type="MSLayerGroup" transform="translate(58.000000, 2182.000000)">
                <path d="M72.6296296,26.1662037 C64.2513889,24.0398148 59.1782407,25.3259259 55.8087963,30.4300926 C52.7666667,35.0388889 53.0319444,40.9981481 56.4717593,45.3166667 C60.1148148,49.8907407 65.5115741,50.8888889 72.8268519,48.3412037 C69.8759259,60.9740741 55.3615741,76.5662037 33.8407407,74.3824074 C13.7476852,72.3435185 -0.255092593,55.6796296 0.470833333,35.2472222 C1.1162037,17.0939815 16.7782407,1.30925926 35,0.447222222 C52.5712963,-0.384259259 70.8337963,12.0976852 72.6296296,26.1662037 L72.6296296,26.1662037 Z M17.2722222,45.8291667 C18.4449074,44.8523148 19.099537,44.3157407 19.7444444,43.7675926 C22.0944444,41.7722222 24.6,39.9425926 26.6398148,37.6092593 C30.6976852,32.9675926 28.6819444,26.3675926 22.7805556,25.1842593 C18.9587963,24.4180556 15.6527778,25.4587963 13.012037,28.5148148 C11.9740741,29.7162037 12.2231481,30.2907407 13.3611111,31.1824074 C14.4569444,32.0407407 15.1217593,32.1027778 15.9648148,30.9319444 C16.6435185,29.9893519 17.6115741,29.2782407 18.7486111,28.9449074 C20.4634259,28.4421296 22.187037,28.4648148 23.4643519,29.8800926 C24.7319444,31.2837963 24.7111111,32.9791667 23.9361111,34.6444444 C23.3398148,35.9259259 22.3513889,36.9203704 21.3009259,37.8305556 C18.387037,40.3541667 15.4976852,42.9115741 12.4939815,45.324537 C11.1689815,46.3888889 11.4435185,47.7087963 11.6925926,48.8930556 C11.9194444,49.9708333 13.1291667,49.4347222 13.8833333,49.4435185 C18.3564815,49.4949074 22.8324074,49.4041667 27.3041667,49.5027778 C28.9277778,49.5384259 28.9569444,48.7106481 29.0041667,47.5064815 C29.0555556,46.2027778 28.6421296,45.7611111 27.3055556,45.8 C24.1731481,45.8907407 21.0361111,45.8291667 17.2722222,45.8291667 L17.2722222,45.8291667 Z M44.4361111,24.9222222 C38.7740741,24.8490741 34.2699074,27.8407407 32.3912037,32.9217593 C30.4884259,38.0675926 32.0055556,43.7976852 36.1587963,47.1546296 C40.2412037,50.4537037 46.2226852,50.8268519 50.675,48.0597222 C52.825,46.7231481 52.737963,46.5865741 51.0648148,44.7800926 C49.8893519,43.5106481 49.2143519,44.5185185 48.3333333,44.9546296 C45.2694444,46.4712963 42.2166667,46.5958333 39.3824074,44.5199074 C36.2962963,42.2592593 35.574537,38.974537 36.1763889,35.4333333 C36.7361111,32.1416667 38.687963,29.8550926 42.0152778,28.9601852 C44.4685185,28.300463 46.8217593,28.712963 48.8527778,30.1638889 C51.049537,31.7333333 51.6046296,29.4625 52.3537037,28.5708333 C53.2569444,27.4967593 51.6287037,27.1907407 51.0055556,26.7680556 C49.0430556,25.437037 46.8083333,24.8907407 44.4361111,24.9222222 L44.4361111,24.9222222 Z" id="Fill-1" fill="#029BC9" sketch:type="MSShapeGroup"></path>
                <path d="M74.5930556,37.5310185 C74.549537,42.487037 70.950463,46.1861111 66.2578704,46.0981481 C61.5583333,46.0092593 58.0726852,42.2810185 58.0652778,37.3356481 C58.0574074,32.2453704 61.6050926,28.6222222 66.5194444,28.7013889 C71.1773148,28.7763889 74.637037,32.5601852 74.5930556,37.5310185" id="Fill-2" fill="#049CC9" sketch:type="MSShapeGroup"></path>
            </g>
        </g>
    </g>
</svg>