<?xml version="1.0" encoding="UTF-8" standalone="no"?>
<svg width="77px" height="25px" viewBox="0 0 77 25" version="1.1" xmlns="http://www.w3.org/2000/svg" xmlns:xlink="http://www.w3.org/1999/xlink" xmlns:sketch="http://www.bohemiancoding.com/sketch/ns">
    <!-- Generator: Sketch 3.2.2 (9983) - http://www.bohemiancoding.com/sketch -->
    <title>Visa</title>
    <desc>Created with Sketch.</desc>
    <defs></defs>
    <g id="MH-MOBILE" stroke="none" stroke-width="1" fill="none" fill-rule="evenodd" sketch:type="MSPage">
        <g id="MH1-Checkout" sketch:type="MSArtboardGroup" transform="translate(-58.000000, -2077.000000)">
            <g id="Visa" sketch:type="MSLayerGroup" transform="translate(58.000000, 2077.000000)">
                <g id="Group" sketch:type="MSShapeGroup">
                    <path d="M26.327,23.846 L29.978,1.246 L35.813,1.246 L32.163,23.846 L26.327,23.846" id="Shape" fill="#0058A0"></path>
                    <path d="M53.331,1.8 C52.176,1.346 50.362,0.851 48.102,0.851 C42.333,0.851 38.27,3.919 38.237,8.311 C38.201,11.559 41.135,13.371 43.348,14.451 C45.622,15.558 46.385,16.266 46.376,17.256 C46.361,18.77 44.561,19.465 42.884,19.465 C40.547,19.465 39.307,19.123 37.387,18.28 L36.636,17.92 L35.82,22.979 C37.181,23.609 39.704,24.154 42.322,24.185 C48.455,24.185 52.438,21.153 52.485,16.462 C52.506,13.888 50.951,11.934 47.583,10.323 C45.544,9.273 44.292,8.58 44.306,7.52 C44.308,6.579 45.363,5.574 47.65,5.574 C49.559,5.544 50.94,5.983 52.017,6.441 L52.542,6.699 L53.331,1.8" id="Shape" fill="#0058A0"></path>
                    <path d="M68.301,1.267 L63.792,1.267 C62.392,1.267 61.346,1.667 60.733,3.141 L52.066,23.854 L58.195,23.854 C58.195,23.854 59.195,21.068 59.422,20.457 C60.091,20.457 66.047,20.469 66.897,20.469 C67.071,21.256 67.607,23.855 67.607,23.855 L73.024,23.855 L68.301,1.267 L68.301,1.267 Z M61.102,15.833 C61.586,14.534 63.426,9.515 63.426,9.515 C63.392,9.575 63.907,8.206 64.202,7.358 L64.595,9.307 C64.595,9.307 65.715,14.702 65.946,15.832 C65.038,15.833 62.242,15.833 61.102,15.833 L61.102,15.833 Z" id="Shape" fill="#0058A0"></path>
                    <path d="M21.43,1.262 L15.718,16.672 L15.107,13.539 C14.042,9.931 10.728,6.019 7.023,4.06 L12.248,23.825 L18.425,23.822 L27.614,1.262 L21.43,1.262" id="Shape" fill="#0058A0"></path>
                    <path d="M10.417,1.247 L1.005,1.247 L0.928,1.716 C8.25,3.588 13.095,8.107 15.107,13.539 L13.061,3.154 C12.71,1.723 11.683,1.298 10.417,1.247 L10.417,1.247 Z" id="Shape" fill="#FAA61A"></path>
                </g>
                <path d="M74.917,21.158 C75.639,21.158 76.206,21.736 76.206,22.446 C76.206,23.158 75.639,23.735 74.917,23.735 C74.195,23.735 73.629,23.157 73.629,22.446 C73.629,21.736 74.195,21.158 74.917,21.158 L74.917,21.158 Z M74.917,23.541 C75.502,23.541 75.962,23.054 75.962,22.446 C75.962,21.84 75.502,21.353 74.917,21.353 C74.332,21.353 73.872,21.84 73.872,22.446 C73.872,23.054 74.332,23.541 74.917,23.541 L74.917,23.541 Z M74.446,21.793 L75.015,21.793 C75.148,21.793 75.44,21.828 75.44,22.163 C75.44,22.253 75.414,22.377 75.223,22.458 L75.223,22.466 C75.387,22.493 75.396,22.649 75.406,22.774 C75.418,22.973 75.406,23.01 75.457,23.079 L75.21,23.079 C75.163,23.032 75.173,22.997 75.163,22.786 C75.163,22.667 75.148,22.546 74.88,22.546 L74.683,22.546 L74.683,23.079 L74.445,23.079 L74.445,21.793 L74.446,21.793 Z M74.684,22.369 L74.961,22.369 C75.156,22.369 75.196,22.255 75.196,22.163 C75.196,22.004 75.094,21.969 74.935,21.969 L74.684,21.969 L74.684,22.369 L74.684,22.369 Z" id="Shape" fill="#0058A0" sketch:type="MSShapeGroup"></path>
            </g>
        </g>
    </g>
</svg>