<?xml version="1.0" encoding="UTF-8" standalone="no"?>
<svg width="50px" height="50px" viewBox="0 0 50 50" version="1.1" xmlns="http://www.w3.org/2000/svg" xmlns:xlink="http://www.w3.org/1999/xlink" xmlns:sketch="http://www.bohemiancoding.com/sketch/ns">
    <!-- Generator: Sketch 3.2.2 (9983) - http://www.bohemiancoding.com/sketch -->
    <title>Lince</title>
    <desc>Created with Sketch.</desc>
    <defs></defs>
    <g id="MH-MOBILE" stroke="none" stroke-width="1" fill="none" fill-rule="evenodd" sketch:type="MSPage">
        <g id="MH---Category-2" sketch:type="MSArtboardGroup" transform="translate(-522.000000, -173.000000)" fill="#FFFFFF">
            <g id="Search-2" sketch:type="MSLayerGroup" transform="translate(21.000000, 151.000000)">
                <g id="Lince" transform="translate(501.000000, 22.000000)" sketch:type="MSShapeGroup">
                    <path d="M49.2035461,45.2150735 C50.0634752,44.2400735 49.9960993,42.7227941 49.0531915,41.84375 L37.3804965,30.9518382 C36.4375887,30.0724265 34.9648936,30.1529412 34.1049645,31.1279412 L30.6021277,35.1047794 C29.7421986,36.0797794 29.8113475,37.5970588 30.7524823,38.4742647 L42.4248227,49.3661765 C43.3677305,50.2455882 44.8404255,50.1672794 45.7003546,49.1922794 L49.2035461,45.2150735 L49.2035461,45.2150735 Z" id="Shape"></path>
                    <path d="M17.9524823,0.183823529 C16.0248227,0.183823529 14.0656028,0.511029412 12.1421986,1.20257353 C2.86702128,4.52830882 -2.04964539,15.0213235 1.15851064,24.6345588 C3.70035461,32.25625 10.5861702,37.0397059 17.9503546,37.0397059 C19.8780142,37.0397059 21.8393617,36.7102941 23.762766,36.0209559 C33.0379433,32.6926471 37.9542553,22.2018382 34.7443262,12.5867647 C32.2024823,4.96727941 25.3166667,0.183823529 17.9524823,0.183823529 M17.9524823,5.17830882 C23.4684397,5.17830882 28.3890071,8.81066176 30.1932624,14.2205882 C31.3251773,17.6091912 31.1141844,21.2529412 29.6042553,24.4790441 C28.0900709,27.7051471 25.4585106,30.1279412 22.1879433,31.3 C20.8134752,31.7944853 19.387234,32.0452206 17.9503546,32.0452206 C12.4343972,32.0452206 7.51595745,28.4106618 5.71134752,23.0007353 C4.57943262,19.6121324 4.79042553,15.9683824 6.30035461,12.7444853 C7.81453901,9.51617647 10.4460993,7.09338235 13.7166667,5.92132353 C15.0911348,5.42683824 16.5156028,5.17830882 17.9524823,5.17830882" id="Shape"></path>
                </g>
            </g>
        </g>
    </g>
</svg>